<?xml version="1.0" encoding="utf-8" standalone="no"?>
<!DOCTYPE svg PUBLIC "-//W3C//DTD SVG 1.1//EN" "http://www.w3.org/Graphics/SVG/1.1/DTD/svg11.dtd">
<svg viewBox = "0 0 300 300" version = "1.1" xmlns="http://www.w3.org/2000/svg" xmlns:xlink="http://www.w3.org/1999/xlink"  source = "KartenGenerator" >
<line x1="0" y1 ="0" x2="0" y2="290" stroke = "black" stroke-width = "1" stroke-linecap="square"/>
<line x1="0" y1 ="290" x2="290" y2="290" stroke = "black" stroke-width = "1" stroke-linecap="square"/>
<line x1="290" y1 ="290" x2="290" y2="0" stroke = "black" stroke-width = "1" stroke-linecap="square"/>
<line x1="290" y1 ="0" x2="0" y2="0" stroke = "black" stroke-width = "1" stroke-linecap="square"/>
<line x1="260" y1 ="30" x2="290" y2="0" stroke = "black" stroke-width = "1" stroke-linecap="square"/>
<line x1="260" y1 ="30" x2="260" y2="50" stroke = "black" stroke-width = "1" stroke-linecap="square"/>
<line x1="260" y1 ="50" x2="290" y2="80" stroke = "black" stroke-width = "1" stroke-linecap="square"/>
<line x1="60" y1 ="70" x2="110" y2="70" stroke = "black" stroke-width = "1" stroke-linecap="square"/>
<line x1="110" y1 ="70" x2="110" y2="100" stroke = "black" stroke-width = "1" stroke-linecap="square"/>
<line x1="110" y1 ="100" x2="70" y2="140" stroke = "black" stroke-width = "1" stroke-linecap="square"/>
<line x1="70" y1 ="140" x2="60" y2="140" stroke = "black" stroke-width = "1" stroke-linecap="square"/>
<line x1="60" y1 ="140" x2="60" y2="70" stroke = "black" stroke-width = "1" stroke-linecap="square"/>
<line x1="180" y1 ="160" x2="230" y2="160" stroke = "black" stroke-width = "1" stroke-linecap="square"/>
<line x1="230" y1 ="160" x2="260" y2="190" stroke = "black" stroke-width = "1" stroke-linecap="square"/>
<line x1="260" y1 ="190" x2="260" y2="200" stroke = "black" stroke-width = "1" stroke-linecap="square"/>
<line x1="260" y1 ="200" x2="210" y2="200" stroke = "black" stroke-width = "1" stroke-linecap="square"/>
<line x1="210" y1 ="200" x2="180" y2="170" stroke = "black" stroke-width = "1" stroke-linecap="square"/>
<line x1="180" y1 ="160" x2="180" y2="170" stroke = "black" stroke-width = "1" stroke-linecap="square"/>
<line x1="0" y1 ="170" x2="20" y2="170" stroke = "black" stroke-width = "1" stroke-linecap="square"/>
<line x1="20" y1 ="170" x2="20" y2="180" stroke = "black" stroke-width = "1" stroke-linecap="square"/>
<line x1="20" y1 ="180" x2="0" y2="200" stroke = "black" stroke-width = "1" stroke-linecap="square"/>
<line x1="100" y1 ="200" x2="130" y2="170" stroke = "black" stroke-width = "1" stroke-linecap="square"/>
<line x1="130" y1 ="170" x2="140" y2="170" stroke = "black" stroke-width = "1" stroke-linecap="square"/>
<line x1="140" y1 ="170" x2="140" y2="250" stroke = "black" stroke-width = "1" stroke-linecap="square"/>
<line x1="140" y1 ="250" x2="130" y2="250" stroke = "black" stroke-width = "1" stroke-linecap="square"/>
<line x1="130" y1 ="250" x2="100" y2="220" stroke = "black" stroke-width = "1" stroke-linecap="square"/>
<line x1="100" y1 ="220" x2="100" y2="200" stroke = "black" stroke-width = "1" stroke-linecap="square"/>
<line x1="0" y1 ="230" x2="30" y2="230" stroke = "black" stroke-width = "1" stroke-linecap="square"/>
<line x1="30" y1 ="230" x2="30" y2="240" stroke = "black" stroke-width = "1" stroke-linecap="square"/>
<line x1="30" y1 ="240" x2="0" y2="270" stroke = "black" stroke-width = "1" stroke-linecap="square"/>
<circle cx="35.9111" cy ="16.0288" r="14.3" fill="none" stroke = "black" stroke-width = "1"/>
<circle cx="35" cy ="55" r="13.8" fill="none" stroke = "orange" stroke-width = "1"/>" id = "0
<circle cx="115" cy ="15" r="13.8" fill="none" stroke = "orange" stroke-width = "1"/>" id = "1
<circle cx="175" cy ="15" r="13.8" fill="none" stroke = "orange" stroke-width = "1"/>" id = "2
<circle cx="235" cy ="15" r="13.8" fill="none" stroke = "orange" stroke-width = "1"/>" id = "3
<circle cx="125" cy ="75" r="13.8" fill="none" stroke = "orange" stroke-width = "1"/>" id = "4
<circle cx="165" cy ="75" r="13.8" fill="none" stroke = "orange" stroke-width = "1"/>" id = "5
<circle cx="255" cy ="75" r="13.8" fill="none" stroke = "orange" stroke-width = "1"/>" id = "6
<circle cx="35" cy ="155" r="13.8" fill="none" stroke = "orange" stroke-width = "1"/>" id = "7
<circle cx="85" cy ="155" r="13.8" fill="none" stroke = "orange" stroke-width = "1"/>" id = "8
<circle cx="155" cy ="165" r="13.8" fill="none" stroke = "orange" stroke-width = "1"/>" id = "9
<circle cx="265" cy ="155" r="13.8" fill="none" stroke = "orange" stroke-width = "1"/>" id = "10
<circle cx="45" cy ="235" r="13.8" fill="none" stroke = "orange" stroke-width = "1"/>" id = "11
<circle cx="85" cy ="245" r="13.8" fill="none" stroke = "orange" stroke-width = "1"/>" id = "12
<circle cx="185" cy ="235" r="13.8" fill="none" stroke = "orange" stroke-width = "1"/>" id = "13
<circle cx="245" cy ="235" r="13.8" fill="none" stroke = "orange" stroke-width = "1"/>" id = "14
</svg>
