<?xml version="1.0" encoding="utf-8" standalone="no"?>
<!DOCTYPE svg PUBLIC "-//W3C//DTD SVG 1.1//EN" "http://www.w3.org/Graphics/SVG/1.1/DTD/svg11.dtd">
<svg viewBox = "0 0 300 300" version = "1.1" xmlns="http://www.w3.org/2000/svg" xmlns:xlink="http://www.w3.org/1999/xlink"  source = "KartenGenerator" >
<line x1="0" y1 ="0" x2="0" y2="290" stroke = "black" stroke-width = "1" stroke-linecap="square"/>
<line x1="0" y1 ="290" x2="290" y2="290" stroke = "black" stroke-width = "1" stroke-linecap="square"/>
<line x1="290" y1 ="290" x2="290" y2="0" stroke = "black" stroke-width = "1" stroke-linecap="square"/>
<line x1="290" y1 ="0" x2="0" y2="0" stroke = "black" stroke-width = "1" stroke-linecap="square"/>
<line x1="0" y1 ="20" x2="50" y2="20" stroke = "black" stroke-width = "1" stroke-linecap="square"/>
<line x1="50" y1 ="20" x2="50" y2="0" stroke = "black" stroke-width = "1" stroke-linecap="square"/>
<line x1="150" y1 ="0" x2="150" y2="50" stroke = "black" stroke-width = "1" stroke-linecap="square"/>
<line x1="150" y1 ="50" x2="190" y2="50" stroke = "black" stroke-width = "1" stroke-linecap="square"/>
<line x1="190" y1 ="50" x2="210" y2="70" stroke = "black" stroke-width = "1" stroke-linecap="square"/>
<line x1="210" y1 ="70" x2="230" y2="70" stroke = "black" stroke-width = "1" stroke-linecap="square"/>
<line x1="230" y1 ="70" x2="260" y2="40" stroke = "black" stroke-width = "1" stroke-linecap="square"/>
<line x1="260" y1 ="40" x2="260" y2="20" stroke = "black" stroke-width = "1" stroke-linecap="square"/>
<line x1="260" y1 ="20" x2="240" y2="0" stroke = "black" stroke-width = "1" stroke-linecap="square"/>
<line x1="0" y1 ="170" x2="0" y2="180" stroke = "black" stroke-width = "1" stroke-linecap="square"/>
<line x1="280" y1 ="270" x2="290" y2="270" stroke = "black" stroke-width = "1" stroke-linecap="square"/>
<line x1="280" y1 ="270" x2="280" y2="290" stroke = "black" stroke-width = "1" stroke-linecap="square"/>
<circle cx="65" cy ="25" r="13.8" fill="none" stroke = "orange" stroke-width = "1"/>" id = "0
<circle cx="185" cy ="65" r="13.8" fill="none" stroke = "orange" stroke-width = "1"/>" id = "1
<circle cx="275" cy ="25" r="13.8" fill="none" stroke = "orange" stroke-width = "1"/>" id = "2
<circle cx="35" cy ="75" r="13.8" fill="none" stroke = "orange" stroke-width = "1"/>" id = "3
<circle cx="75" cy ="75" r="13.8" fill="none" stroke = "orange" stroke-width = "1"/>" id = "4
<circle cx="155" cy ="75" r="13.8" fill="none" stroke = "orange" stroke-width = "1"/>" id = "5
<circle cx="255" cy ="75" r="13.8" fill="none" stroke = "orange" stroke-width = "1"/>" id = "6
<circle cx="15" cy ="155" r="13.8" fill="none" stroke = "orange" stroke-width = "1"/>" id = "7
<circle cx="105" cy ="155" r="13.8" fill="none" stroke = "orange" stroke-width = "1"/>" id = "8
<circle cx="165" cy ="155" r="13.8" fill="none" stroke = "orange" stroke-width = "1"/>" id = "9
<circle cx="265" cy ="155" r="13.8" fill="none" stroke = "orange" stroke-width = "1"/>" id = "10
<circle cx="15" cy ="235" r="13.8" fill="none" stroke = "orange" stroke-width = "1"/>" id = "11
<circle cx="85" cy ="235" r="13.8" fill="none" stroke = "orange" stroke-width = "1"/>" id = "12
<circle cx="155" cy ="235" r="13.8" fill="none" stroke = "orange" stroke-width = "1"/>" id = "13
<circle cx="275" cy ="235" r="13.8" fill="none" stroke = "orange" stroke-width = "1"/>" id = "14
</svg>
