<?xml version="1.0" encoding="utf-8" standalone="no"?>
<!DOCTYPE svg PUBLIC "-//W3C//DTD SVG 1.1//EN" "http://www.w3.org/Graphics/SVG/1.1/DTD/svg11.dtd">
<svg viewBox = "0 0 300 300" version = "1.1" xmlns="http://www.w3.org/2000/svg" xmlns:xlink="http://www.w3.org/1999/xlink"  source = "KartenGenerator" >
<line x1="0" y1 ="0" x2="0" y2="290" stroke = "black" stroke-width = "1" stroke-linecap="square"/>
<line x1="0" y1 ="290" x2="290" y2="290" stroke = "black" stroke-width = "1" stroke-linecap="square"/>
<line x1="290" y1 ="290" x2="290" y2="0" stroke = "black" stroke-width = "1" stroke-linecap="square"/>
<line x1="290" y1 ="0" x2="0" y2="0" stroke = "black" stroke-width = "1" stroke-linecap="square"/>
<line x1="110" y1 ="0" x2="110" y2="20" stroke = "black" stroke-width = "1" stroke-linecap="square"/>
<line x1="110" y1 ="20" x2="140" y2="20" stroke = "black" stroke-width = "1" stroke-linecap="square"/>
<line x1="140" y1 ="20" x2="160" y2="0" stroke = "black" stroke-width = "1" stroke-linecap="square"/>
<line x1="100" y1 ="70" x2="110" y2="70" stroke = "black" stroke-width = "1" stroke-linecap="square"/>
<line x1="110" y1 ="70" x2="140" y2="100" stroke = "black" stroke-width = "1" stroke-linecap="square"/>
<line x1="140" y1 ="100" x2="140" y2="150" stroke = "black" stroke-width = "1" stroke-linecap="square"/>
<line x1="140" y1 ="150" x2="130" y2="150" stroke = "black" stroke-width = "1" stroke-linecap="square"/>
<line x1="130" y1 ="150" x2="100" y2="120" stroke = "black" stroke-width = "1" stroke-linecap="square"/>
<line x1="100" y1 ="120" x2="100" y2="70" stroke = "black" stroke-width = "1" stroke-linecap="square"/>
<line x1="110" y1 ="70" x2="100" y2="70" stroke = "black" stroke-width = "1" stroke-linecap="square"/>
<line x1="260" y1 ="70" x2="290" y2="70" stroke = "black" stroke-width = "1" stroke-linecap="square"/>
<line x1="260" y1 ="70" x2="260" y2="80" stroke = "black" stroke-width = "1" stroke-linecap="square"/>
<line x1="260" y1 ="80" x2="290" y2="110" stroke = "black" stroke-width = "1" stroke-linecap="square"/>
<line x1="60" y1 ="200" x2="70" y2="200" stroke = "black" stroke-width = "1" stroke-linecap="square"/>
<line x1="70" y1 ="200" x2="100" y2="230" stroke = "black" stroke-width = "1" stroke-linecap="square"/>
<line x1="100" y1 ="230" x2="100" y2="260" stroke = "black" stroke-width = "1" stroke-linecap="square"/>
<line x1="100" y1 ="260" x2="60" y2="260" stroke = "black" stroke-width = "1" stroke-linecap="square"/>
<line x1="60" y1 ="260" x2="60" y2="200" stroke = "black" stroke-width = "1" stroke-linecap="square"/>
<line x1="70" y1 ="200" x2="60" y2="200" stroke = "black" stroke-width = "1" stroke-linecap="square"/>
<line x1="120" y1 ="290" x2="160" y2="290" stroke = "black" stroke-width = "1" stroke-linecap="square"/>
<line x1="220" y1 ="290" x2="230" y2="290" stroke = "black" stroke-width = "1" stroke-linecap="square"/>
<circle cx="35" cy ="15" r="13.8" fill="none" stroke = "orange" stroke-width = "1"/>" id = "0
<circle cx="75" cy ="15" r="13.8" fill="none" stroke = "orange" stroke-width = "1"/>" id = "1
<circle cx="165" cy ="15" r="13.8" fill="none" stroke = "orange" stroke-width = "1"/>" id = "2
<circle cx="245" cy ="15" r="13.8" fill="none" stroke = "orange" stroke-width = "1"/>" id = "3
<circle cx="35" cy ="75" r="13.8" fill="none" stroke = "orange" stroke-width = "1"/>" id = "4
<circle cx="75" cy ="75" r="13.8" fill="none" stroke = "orange" stroke-width = "1"/>" id = "5
<circle cx="155" cy ="75" r="13.8" fill="none" stroke = "orange" stroke-width = "1"/>" id = "6
<circle cx="245" cy ="75" r="13.8" fill="none" stroke = "orange" stroke-width = "1"/>" id = "7
<circle cx="15" cy ="155" r="13.8" fill="none" stroke = "orange" stroke-width = "1"/>" id = "8
<circle cx="105" cy ="155" r="13.8" fill="none" stroke = "orange" stroke-width = "1"/>" id = "9
<circle cx="165" cy ="155" r="13.8" fill="none" stroke = "orange" stroke-width = "1"/>" id = "10
<circle cx="265" cy ="155" r="13.8" fill="none" stroke = "orange" stroke-width = "1"/>" id = "11
<circle cx="15" cy ="235" r="13.8" fill="none" stroke = "orange" stroke-width = "1"/>" id = "12
<circle cx="125" cy ="235" r="13.8" fill="none" stroke = "orange" stroke-width = "1"/>" id = "13
<circle cx="155" cy ="235" r="13.8" fill="none" stroke = "orange" stroke-width = "1"/>" id = "14
<circle cx="275" cy ="235" r="13.8" fill="none" stroke = "orange" stroke-width = "1"/>" id = "15
</svg>
