<?xml version="1.0" encoding="utf-8"?>
<!-- Generator: Adobe Illustrator 16.0.3, SVG Export Plug-In . SVG Version: 6.00 Build 0)  -->
<!DOCTYPE svg PUBLIC "-//W3C//DTD SVG 1.1//EN" "http://www.w3.org/Graphics/SVG/1.1/DTD/svg11.dtd">
<svg version="1.1" id="Ebene_1_Kopie" xmlns="http://www.w3.org/2000/svg" xmlns:xlink="http://www.w3.org/1999/xlink" x="0px"
	 y="0px" width="623.619px" height="283.46px" viewBox="0 0 623.619 283.46" enable-background="new 0 0 623.619 283.46"
	 xml:space="preserve">
<circle id="start_1_2_" fill="#E52420" stroke="#000000" stroke-miterlimit="10" cx="587.884" cy="206.83" r="7.499"/>
<circle id="start_2_2_" fill="#E52420" stroke="#000000" stroke-miterlimit="10" cx="443.993" cy="259.897" r="7.5"/>
<circle id="start_2_1_" fill="#E52420" stroke="#000000" stroke-miterlimit="10" cx="389.327" cy="102.23" r="7.5"/>
<circle id="start_3_2_" fill="#E52420" stroke="#000000" stroke-miterlimit="10" cx="307.946" cy="206.83" r="7.499"/>
<circle id="start_3_1_" fill="#E52420" stroke="#000000" stroke-miterlimit="10" cx="329.612" cy="26.882" r="7.499"/>
<circle id="start_4_2_" fill="#E52420" stroke="#000000" stroke-miterlimit="10" cx="57.373" cy="252.397" r="7.5"/>
<circle id="start_4_4_" fill="#E52420" stroke="#000000" stroke-miterlimit="10" cx="100.447" cy="199.33" r="7.5"/>
<circle id="start_4_3_" fill="#E52420" stroke="#000000" stroke-miterlimit="10" cx="587.884" cy="43.215" r="7.5"/>
<circle id="start_4_1_" fill="#E52420" stroke="#000000" stroke-miterlimit="10" cx="31.707" cy="109.73" r="7.5"/>
<circle id="goal_1_2_" fill="#66B32E" stroke="#000000" stroke-miterlimit="10" cx="55.434" cy="48.961" r="13.668"/>
<circle id="goal_2_2_" fill="#66B32E" stroke="#000000" stroke-miterlimit="10" cx="149.365" cy="37.052" r="13.668"/>
<circle id="goal_2_4_" fill="#66B32E" stroke="#000000" stroke-miterlimit="10" cx="145.178" cy="86.385" r="13.668"/>
<circle id="goal_2_1_" fill="#66B32E" stroke="#000000" stroke-miterlimit="10" cx="194.365" cy="23.384" r="13.668"/>
<circle id="goal_2_3_" fill="#66B32E" stroke="#000000" stroke-miterlimit="10" cx="43.705" cy="19.384" r="13.668"/>
<circle id="goal_3_2_" fill="#66B32E" stroke="#000000" stroke-miterlimit="10" cx="78.863" cy="75.225" r="13.99"/>
<circle id="goal_4_2_" fill="#66B32E" stroke="#000000" stroke-miterlimit="10" cx="92.854" cy="29.225" r="13.99"/>
<circle id="goal_4_1_" fill="#66B32E" stroke="#000000" stroke-miterlimit="10" cx="117.521" cy="62.629" r="13.99"/>
<circle id="goal_4_3_" fill="#66B32E" stroke="#000000" stroke-miterlimit="10" cx="183.188" cy="78.629" r="13.99"/>
<rect x="474.614" y="117.23" fill="#FFFFFF" stroke="#000000" stroke-miterlimit="10" width="69" height="69.667"/>
<rect x="61.947" y="126.896" fill="#FFFFFF" stroke="#000000" stroke-miterlimit="10" width="77" height="60"/>
<polygon fill="none" stroke="#000000" stroke-miterlimit="10" points="334.802,193.563 260.055,193.563 242.547,118.23 
	352.309,118.23 "/>
<polygon fill="#FFFFFF" stroke="#000000" stroke-miterlimit="10" points="383.976,132.563 420.973,132.563 420.973,193.562 
	375.642,193.562 "/>
<polyline fill="none" stroke="#000000" stroke-miterlimit="10" points="623.619,283.46 0,283.46 0,0 621.642,0 621.642,288.23 "/>
</svg>
