<?xml version="1.0" encoding="utf-8"?>
<!-- Generator: Adobe Illustrator 16.0.3, SVG Export Plug-In . SVG Version: 6.00 Build 0)  -->
<!DOCTYPE svg PUBLIC "-//W3C//DTD SVG 1.1//EN" "http://www.w3.org/Graphics/SVG/1.1/DTD/svg11.dtd">
<svg version="1.1" id="Ebene_1_Kopie" xmlns="http://www.w3.org/2000/svg" xmlns:xlink="http://www.w3.org/1999/xlink" x="0px"
	 y="0px" width="623.619px" height="283.46px" viewBox="0 0 623.619 283.46" enable-background="new 0 0 623.619 283.46"
	 xml:space="preserve">
<circle id="start_1_2_" fill="#E52420" stroke="#000000" stroke-miterlimit="10" cx="31.707" cy="206.829" r="7.499"/>
<circle id="start_2_2_" fill="#E52420" stroke="#000000" stroke-miterlimit="10" cx="175.597" cy="259.897" r="7.5"/>
<circle id="start_2_1_" fill="#E52420" stroke="#000000" stroke-miterlimit="10" cx="230.263" cy="102.23" r="7.5"/>
<circle id="start_3_2_" fill="#E52420" stroke="#000000" stroke-miterlimit="10" cx="311.644" cy="206.829" r="7.499"/>
<circle id="start_3_1_" fill="#E52420" stroke="#000000" stroke-miterlimit="10" cx="289.978" cy="26.882" r="7.499"/>
<circle id="start_4_2_" fill="#E52420" stroke="#000000" stroke-miterlimit="10" cx="562.217" cy="252.397" r="7.5"/>
<circle id="start_4_4_" fill="#E52420" stroke="#000000" stroke-miterlimit="10" cx="519.143" cy="199.33" r="7.5"/>
<circle id="start_4_3_" fill="#E52420" stroke="#000000" stroke-miterlimit="10" cx="31.707" cy="43.215" r="7.5"/>
<circle id="start_4_1_" fill="#E52420" stroke="#000000" stroke-miterlimit="10" cx="587.883" cy="109.73" r="7.5"/>
<circle id="goal_1_2_" fill="#66B32E" stroke="#000000" stroke-miterlimit="10" cx="564.156" cy="48.961" r="13.668"/>
<circle id="goal_2_2_" fill="#66B32E" stroke="#000000" stroke-miterlimit="10" cx="470.225" cy="37.052" r="13.668"/>
<circle id="goal_2_4_" fill="#66B32E" stroke="#000000" stroke-miterlimit="10" cx="474.412" cy="86.385" r="13.668"/>
<circle id="goal_2_1_" fill="#66B32E" stroke="#000000" stroke-miterlimit="10" cx="425.225" cy="23.384" r="13.668"/>
<circle id="goal_2_3_" fill="#66B32E" stroke="#000000" stroke-miterlimit="10" cx="575.885" cy="19.384" r="13.668"/>
<circle id="goal_3_2_" fill="#66B32E" stroke="#000000" stroke-miterlimit="10" cx="540.727" cy="75.225" r="13.99"/>
<circle id="goal_4_2_" fill="#66B32E" stroke="#000000" stroke-miterlimit="10" cx="526.736" cy="29.225" r="13.99"/>
<circle id="goal_4_1_" fill="#66B32E" stroke="#000000" stroke-miterlimit="10" cx="502.069" cy="62.629" r="13.99"/>
<circle id="goal_4_3_" fill="#66B32E" stroke="#000000" stroke-miterlimit="10" cx="436.402" cy="78.629" r="13.99"/>
<polygon fill="none" stroke="#000000" stroke-miterlimit="10" points="619.977,279.897 619.977,2.563 3.31,2.563 3.31,279.563 "/>
<rect x="75.976" y="117.23" fill="#FFFFFF" stroke="#000000" stroke-miterlimit="10" width="69" height="69.667"/>
<polygon fill="#FFFFFF" stroke="#000000" stroke-miterlimit="10" points="198.976,131.563 234.976,131.563 245.643,192.562 
	198.976,192.562 "/>
<rect x="480.643" y="126.896" fill="#FFFFFF" stroke="#000000" stroke-miterlimit="10" width="77" height="60"/>
<polygon fill="none" stroke="#000000" stroke-miterlimit="10" points="358.795,192.563 285.449,192.563 268.268,117.23 
	375.976,117.23 "/>
</svg>
