<?xml version="1.0" encoding="utf-8"?>
<!-- Generator: Adobe Illustrator 16.0.3, SVG Export Plug-In . SVG Version: 6.00 Build 0)  -->
<!DOCTYPE svg PUBLIC "-//W3C//DTD SVG 1.1//EN" "http://www.w3.org/Graphics/SVG/1.1/DTD/svg11.dtd">
<svg version="1.1" id="Ebene_2_2_" xmlns="http://www.w3.org/2000/svg" xmlns:xlink="http://www.w3.org/1999/xlink" x="0px" y="0px"
	 width="623.619px" height="283.46px" viewBox="0 0 623.619 283.46" enable-background="new 0 0 623.619 283.46"
	 xml:space="preserve">
<circle id="start_1_1_" fill="#E52420" stroke="#000000" stroke-miterlimit="10" cx="156.333" cy="191.396" r="6.517"/>
<circle id="start_2_1_" fill="#E52420" stroke="#000000" stroke-miterlimit="10" cx="135.559" cy="161.608" r="6.519"/>
<circle id="goal_1_1_" fill="#66B32E" stroke="#000000" stroke-miterlimit="10" cx="548.461" cy="179.449" r="10.1"/>
<circle id="goal_2_1_" fill="#66B32E" stroke="#000000" stroke-miterlimit="10" cx="539.594" cy="153.678" r="10.101"/>

<g id="Ebene_2_1_" display="none">
	
		<image display="inline" overflow="visible" opacity="0.717" enable-background="new    " width="2048" height="2048" id="image4198_2_" xlink:href="B84E65D1.png"  transform="matrix(-0.0021 -0.5903 0.5903 -0.0021 -253.6594 622.4839)">
	</image>
</g>
<polygon display="none" fill="none" stroke="#000000" stroke-miterlimit="10" points="421.946,222.818 416.08,213.583 
	427.162,216.625 "/>
<polygon display="none" fill="none" stroke="#000000" stroke-miterlimit="10" points="516.032,213.693 512.12,216.733 
	503.212,213.475 "/>
<rect x="246.563" y="146.897" display="none" fill="#FFFFFF" stroke="#000000" stroke-miterlimit="10" width="340.157" height="25"/>
<polygon fill="none" stroke="#000000" stroke-miterlimit="10" points="232.893,195.23 232.643,275.563 297.142,275.69 
	313.643,279.063 484.309,280.397 489.142,276.066 572.976,276.23 570.976,253.563 592.642,250.563 590.309,126.896 415.976,133.563 
	415.309,119.23 390.309,119.23 390.309,108.563 396.309,108.563 396.309,3.563 234.643,3.563 47.643,3.563 47.643,104.896 
	146.976,104.896 146.976,111.563 47.976,111.563 47.976,277.564 215.643,277.564 215.643,195.064 "/>
<polygon fill="none" stroke="#000000" stroke-miterlimit="10" points="232.309,162.355 227.809,162.355 227.809,114.98 
	176.559,114.98 176.559,107.48 228.309,107.48 228.309,31.73 235.809,31.73 235.809,40.98 251.559,40.98 251.559,95.98 
	319.059,95.98 319.059,106.23 326.309,106.23 326.309,110.73 266.809,110.73 266.809,136.23 238.809,136.23 238.809,157.355 
	232.393,157.355 "/>
<polyline fill="none" stroke="#000000" stroke-miterlimit="10" points="593.31,182.855 565.059,182.855 565.059,201.355 
	592.642,201.355 "/>
<path fill="none" stroke="#000000" stroke-miterlimit="10" d="M602.184,123.73"/>
<rect x="232.789" y="196.241" transform="matrix(0.9881 0.1541 -0.1541 0.9881 33.4514 -35.8927)" fill="none" stroke="#000000" stroke-miterlimit="10" width="31" height="3.251"/>
<rect x="151.953" y="123.568" transform="matrix(0.5397 -0.8418 0.8418 0.5397 -28.3189 198.5906)" fill="none" stroke="#000000" stroke-miterlimit="10" width="31" height="3.25"/>
<rect x="307.954" y="124.022" transform="matrix(-0.267 0.9637 -0.9637 -0.267 530.9155 -152.507)" fill="none" stroke="#000000" stroke-miterlimit="10" width="31" height="3.251"/>
<rect x="358.921" y="106.36" transform="matrix(-0.9978 0.0667 -0.0667 -0.9978 755.2119 190.7476)" fill="none" stroke="#000000" stroke-miterlimit="10" width="31" height="3.251"/>
<rect x="501.476" y="195.897" fill="none" stroke="#000000" stroke-miterlimit="10" width="4" height="7.666"/>
<rect x="448.976" y="195.897" fill="none" stroke="#000000" stroke-miterlimit="10" width="8.5" height="5.458"/>
<rect x="462.309" y="175.631" transform="matrix(0.7682 0.6402 -0.6402 0.7682 223.4283 -260.6871)" fill="none" stroke="#000000" stroke-miterlimit="10" width="18.833" height="5.166"/>
<rect x="465.476" y="209.563" transform="matrix(0.9207 0.3902 -0.3902 0.9207 120.0608 -166.2181)" fill="none" stroke="#000000" stroke-miterlimit="10" width="7.333" height="5.667"/>
<rect x="513.229" y="208.563" transform="matrix(0.869 -0.4949 0.4949 0.869 -36.8829 283.5001)" fill="none" stroke="#000000" stroke-miterlimit="10" width="7.333" height="5.667"/>
<rect x="422.976" y="211.397" fill="none" stroke="#000000" stroke-miterlimit="10" width="5" height="23.5"/>
<polyline fill="none" stroke="#000000" stroke-miterlimit="10" points="527.233,277.314 527.233,267.397 508.642,267.397 
	508.642,277.147 "/>
<rect x="253.976" y="208.357" transform="matrix(0.8598 -0.5105 0.5105 0.8598 -73.0735 165.3084)" fill="none" stroke="#000000" stroke-miterlimit="10" width="21.167" height="14.79"/>
<rect x="391.31" y="126.063" transform="matrix(-0.9929 -0.1187 0.1187 -0.9929 780.9611 318.9581)" fill="none" stroke="#000000" stroke-miterlimit="10" width="17.332" height="20.333"/>
<polyline fill="none" stroke="#000000" stroke-miterlimit="10" points="430.476,130.341 430.476,139.118 462.839,139.118 
	462.839,129.563 "/>
<rect x="149.816" y="207.12" transform="matrix(0.989 0.1477 -0.1477 0.989 33.472 -20.4899)" fill="none" stroke="#000000" stroke-miterlimit="10" width="9.772" height="16.027"/>
<polyline fill="none" stroke="#000000" stroke-miterlimit="10" points="304.976,279.23 304.976,246.397 271.476,246.397 
	271.476,277.23 "/>
<polyline fill="none" stroke="#000000" stroke-miterlimit="10" points="156.334,278.564 156.334,257.397 137.309,256.563 
	137.309,278.564 "/>
<polyline fill="none" stroke="#000000" stroke-miterlimit="10" points="46.144,223.781 63.476,223.781 63.476,209.73 46.644,209.73 
	"/>
<polyline fill="none" stroke="#000000" stroke-miterlimit="10" points="279.643,108.839 279.643,144.563 312.476,144.563 
	312.476,109.822 "/>
<polyline fill="none" stroke="#000000" stroke-miterlimit="10" points="566.809,125.373 568.476,150.73 592.642,149.897 "/>
</svg>
