<?xml version="1.0" encoding="utf-8" standalone="no"?>
<!DOCTYPE svg PUBLIC "-//W3C//DTD SVG 1.1//EN" "http://www.w3.org/Graphics/SVG/1.1/DTD/svg11.dtd">
<svg viewBox = "0 0 470 470" version = "1.1" xmlns="http://www.w3.org/2000/svg" xmlns:xlink="http://www.w3.org/1999/xlink">
<line x1="0" y1 ="-3.05176e-05" x2="0" y2="470" stroke = "black" stroke-width = "1" stroke-linecap="square"/>
<line x1="0" y1 ="470" x2="470" y2="470" stroke = "black" stroke-width = "1" stroke-linecap="square"/>
<line x1="470" y1 ="470" x2="470" y2="-3.05176e-05" stroke = "black" stroke-width = "1" stroke-linecap="square"/>
<line x1="470" y1 ="-3.05176e-05" x2="0" y2="-3.05176e-05" stroke = "black" stroke-width = "1" stroke-linecap="square"/>
<line x1="0" y1 ="20" x2="20" y2="20" stroke = "black" stroke-width = "1" stroke-linecap="square"/>
<line x1="20" y1 ="20" x2="20" y2="-3.05176e-05" stroke = "black" stroke-width = "1" stroke-linecap="square"/>
<line x1="390" y1 ="10" x2="400" y2="-3.05176e-05" stroke = "black" stroke-width = "1" stroke-linecap="square"/>
<line x1="390" y1 ="10" x2="390" y2="20" stroke = "black" stroke-width = "1" stroke-linecap="square"/>
<line x1="390" y1 ="20" x2="460" y2="20" stroke = "black" stroke-width = "1" stroke-linecap="square"/>
<line x1="460" y1 ="20" x2="460" y2="40" stroke = "black" stroke-width = "1" stroke-linecap="square"/>
<line x1="460" y1 ="40" x2="470" y2="50" stroke = "black" stroke-width = "1" stroke-linecap="square"/>
<line x1="240" y1 ="10" x2="250" y2="10" stroke = "black" stroke-width = "1" stroke-linecap="square"/>
<line x1="250" y1 ="10" x2="260" y2="20" stroke = "black" stroke-width = "1" stroke-linecap="square"/>
<line x1="260" y1 ="20" x2="330" y2="20" stroke = "black" stroke-width = "1" stroke-linecap="square"/>
<line x1="330" y1 ="20" x2="330" y2="50" stroke = "black" stroke-width = "1" stroke-linecap="square"/>
<line x1="330" y1 ="50" x2="240" y2="50" stroke = "black" stroke-width = "1" stroke-linecap="square"/>
<line x1="240" y1 ="50" x2="240" y2="10" stroke = "black" stroke-width = "1" stroke-linecap="square"/>
<line x1="250" y1 ="10" x2="240" y2="10" stroke = "black" stroke-width = "1" stroke-linecap="square"/>
<line x1="80" y1 ="20" x2="110" y2="20" stroke = "black" stroke-width = "1" stroke-linecap="square"/>
<line x1="110" y1 ="20" x2="110" y2="60" stroke = "black" stroke-width = "1" stroke-linecap="square"/>
<line x1="110" y1 ="60" x2="100" y2="60" stroke = "black" stroke-width = "1" stroke-linecap="square"/>
<line x1="100" y1 ="60" x2="80" y2="40" stroke = "black" stroke-width = "1" stroke-linecap="square"/>
<line x1="80" y1 ="40" x2="80" y2="20" stroke = "black" stroke-width = "1" stroke-linecap="square"/>
<line x1="360" y1 ="50" x2="430" y2="50" stroke = "black" stroke-width = "1" stroke-linecap="square"/>
<line x1="430" y1 ="50" x2="430" y2="90" stroke = "black" stroke-width = "1" stroke-linecap="square"/>
<line x1="430" y1 ="90" x2="370" y2="90" stroke = "black" stroke-width = "1" stroke-linecap="square"/>
<line x1="370" y1 ="90" x2="370" y2="70" stroke = "black" stroke-width = "1" stroke-linecap="square"/>
<line x1="370" y1 ="70" x2="360" y2="60" stroke = "black" stroke-width = "1" stroke-linecap="square"/>
<line x1="360" y1 ="50" x2="360" y2="60" stroke = "black" stroke-width = "1" stroke-linecap="square"/>
<line x1="0" y1 ="110" x2="30" y2="110" stroke = "black" stroke-width = "1" stroke-linecap="square"/>
<line x1="30" y1 ="110" x2="30" y2="70" stroke = "black" stroke-width = "1" stroke-linecap="square"/>
<line x1="30" y1 ="70" x2="50" y2="70" stroke = "black" stroke-width = "1" stroke-linecap="square"/>
<line x1="50" y1 ="70" x2="70" y2="90" stroke = "black" stroke-width = "1" stroke-linecap="square"/>
<line x1="70" y1 ="90" x2="70" y2="220" stroke = "black" stroke-width = "1" stroke-linecap="square"/>
<line x1="70" y1 ="220" x2="10" y2="220" stroke = "black" stroke-width = "1" stroke-linecap="square"/>
<line x1="10" y1 ="220" x2="10" y2="140" stroke = "black" stroke-width = "1" stroke-linecap="square"/>
<line x1="10" y1 ="140" x2="0" y2="130" stroke = "black" stroke-width = "1" stroke-linecap="square"/>
<line x1="0" y1 ="130" x2="0" y2="110" stroke = "black" stroke-width = "1" stroke-linecap="square"/>
<line x1="230" y1 ="80" x2="330" y2="80" stroke = "black" stroke-width = "1" stroke-linecap="square"/>
<line x1="330" y1 ="80" x2="330" y2="130" stroke = "black" stroke-width = "1" stroke-linecap="square"/>
<line x1="330" y1 ="130" x2="310" y2="150" stroke = "black" stroke-width = "1" stroke-linecap="square"/>
<line x1="310" y1 ="150" x2="260" y2="150" stroke = "black" stroke-width = "1" stroke-linecap="square"/>
<line x1="260" y1 ="150" x2="250" y2="140" stroke = "black" stroke-width = "1" stroke-linecap="square"/>
<line x1="250" y1 ="140" x2="230" y2="140" stroke = "black" stroke-width = "1" stroke-linecap="square"/>
<line x1="230" y1 ="140" x2="230" y2="80" stroke = "black" stroke-width = "1" stroke-linecap="square"/>
<line x1="130" y1 ="110" x2="160" y2="110" stroke = "black" stroke-width = "1" stroke-linecap="square"/>
<line x1="160" y1 ="110" x2="170" y2="100" stroke = "black" stroke-width = "1" stroke-linecap="square"/>
<line x1="170" y1 ="100" x2="190" y2="100" stroke = "black" stroke-width = "1" stroke-linecap="square"/>
<line x1="190" y1 ="100" x2="190" y2="130" stroke = "black" stroke-width = "1" stroke-linecap="square"/>
<line x1="190" y1 ="130" x2="170" y2="150" stroke = "black" stroke-width = "1" stroke-linecap="square"/>
<line x1="170" y1 ="150" x2="130" y2="150" stroke = "black" stroke-width = "1" stroke-linecap="square"/>
<line x1="130" y1 ="150" x2="130" y2="110" stroke = "black" stroke-width = "1" stroke-linecap="square"/>
<line x1="470" y1 ="110" x2="470" y2="170" stroke = "black" stroke-width = "1" stroke-linecap="square"/>
<line x1="360" y1 ="120" x2="390" y2="120" stroke = "black" stroke-width = "1" stroke-linecap="square"/>
<line x1="390" y1 ="120" x2="390" y2="160" stroke = "black" stroke-width = "1" stroke-linecap="square"/>
<line x1="390" y1 ="160" x2="360" y2="160" stroke = "black" stroke-width = "1" stroke-linecap="square"/>
<line x1="360" y1 ="160" x2="360" y2="120" stroke = "black" stroke-width = "1" stroke-linecap="square"/>
<line x1="120" y1 ="200" x2="140" y2="180" stroke = "black" stroke-width = "1" stroke-linecap="square"/>
<line x1="140" y1 ="180" x2="150" y2="180" stroke = "black" stroke-width = "1" stroke-linecap="square"/>
<line x1="150" y1 ="180" x2="150" y2="240" stroke = "black" stroke-width = "1" stroke-linecap="square"/>
<line x1="150" y1 ="240" x2="120" y2="240" stroke = "black" stroke-width = "1" stroke-linecap="square"/>
<line x1="120" y1 ="240" x2="120" y2="200" stroke = "black" stroke-width = "1" stroke-linecap="square"/>
<line x1="0" y1 ="250" x2="0" y2="320" stroke = "black" stroke-width = "1" stroke-linecap="square"/>
<line x1="330" y1 ="310" x2="350" y2="290" stroke = "black" stroke-width = "1" stroke-linecap="square"/>
<line x1="350" y1 ="290" x2="350" y2="260" stroke = "black" stroke-width = "1" stroke-linecap="square"/>
<line x1="350" y1 ="260" x2="460" y2="260" stroke = "black" stroke-width = "1" stroke-linecap="square"/>
<line x1="460" y1 ="260" x2="460" y2="300" stroke = "black" stroke-width = "1" stroke-linecap="square"/>
<line x1="460" y1 ="300" x2="400" y2="360" stroke = "black" stroke-width = "1" stroke-linecap="square"/>
<line x1="400" y1 ="360" x2="400" y2="380" stroke = "black" stroke-width = "1" stroke-linecap="square"/>
<line x1="400" y1 ="380" x2="340" y2="380" stroke = "black" stroke-width = "1" stroke-linecap="square"/>
<line x1="340" y1 ="380" x2="340" y2="370" stroke = "black" stroke-width = "1" stroke-linecap="square"/>
<line x1="340" y1 ="370" x2="360" y2="350" stroke = "black" stroke-width = "1" stroke-linecap="square"/>
<line x1="360" y1 ="350" x2="360" y2="330" stroke = "black" stroke-width = "1" stroke-linecap="square"/>
<line x1="360" y1 ="330" x2="330" y2="330" stroke = "black" stroke-width = "1" stroke-linecap="square"/>
<line x1="330" y1 ="330" x2="330" y2="310" stroke = "black" stroke-width = "1" stroke-linecap="square"/>
<line x1="130" y1 ="280" x2="290" y2="280" stroke = "black" stroke-width = "1" stroke-linecap="square"/>
<line x1="290" y1 ="280" x2="290" y2="340" stroke = "black" stroke-width = "1" stroke-linecap="square"/>
<line x1="290" y1 ="340" x2="190" y2="340" stroke = "black" stroke-width = "1" stroke-linecap="square"/>
<line x1="190" y1 ="340" x2="180" y2="350" stroke = "black" stroke-width = "1" stroke-linecap="square"/>
<line x1="180" y1 ="350" x2="130" y2="350" stroke = "black" stroke-width = "1" stroke-linecap="square"/>
<line x1="130" y1 ="350" x2="130" y2="280" stroke = "black" stroke-width = "1" stroke-linecap="square"/>
<line x1="40" y1 ="360" x2="70" y2="360" stroke = "black" stroke-width = "1" stroke-linecap="square"/>
<line x1="70" y1 ="360" x2="70" y2="420" stroke = "black" stroke-width = "1" stroke-linecap="square"/>
<line x1="70" y1 ="420" x2="80" y2="430" stroke = "black" stroke-width = "1" stroke-linecap="square"/>
<line x1="80" y1 ="430" x2="80" y2="470" stroke = "black" stroke-width = "1" stroke-linecap="square"/>
<line x1="40" y1 ="360" x2="40" y2="470" stroke = "black" stroke-width = "1" stroke-linecap="square"/>
<line x1="440" y1 ="380" x2="460" y2="360" stroke = "black" stroke-width = "1" stroke-linecap="square"/>
<line x1="460" y1 ="360" x2="470" y2="360" stroke = "black" stroke-width = "1" stroke-linecap="square"/>
<line x1="440" y1 ="380" x2="440" y2="390" stroke = "black" stroke-width = "1" stroke-linecap="square"/>
<line x1="440" y1 ="390" x2="470" y2="390" stroke = "black" stroke-width = "1" stroke-linecap="square"/>
<line x1="110" y1 ="450" x2="120" y2="440" stroke = "black" stroke-width = "1" stroke-linecap="square"/>
<line x1="120" y1 ="440" x2="120" y2="400" stroke = "black" stroke-width = "1" stroke-linecap="square"/>
<line x1="120" y1 ="400" x2="160" y2="400" stroke = "black" stroke-width = "1" stroke-linecap="square"/>
<line x1="160" y1 ="400" x2="160" y2="460" stroke = "black" stroke-width = "1" stroke-linecap="square"/>
<line x1="160" y1 ="460" x2="150" y2="470" stroke = "black" stroke-width = "1" stroke-linecap="square"/>
<line x1="110" y1 ="450" x2="110" y2="470" stroke = "black" stroke-width = "1" stroke-linecap="square"/>
<line x1="470" y1 ="420" x2="470" y2="430" stroke = "black" stroke-width = "1" stroke-linecap="square"/>
<line x1="165.033" y1 ="-0.0242004" x2="181.119" y2="8.76382" stroke = "black" stroke-width = "1" stroke-linecap="square"/>
<line x1="181.119" y1 ="8.76382" x2="178.483" y2="13.5897" stroke = "black" stroke-width = "1" stroke-linecap="square"/>
<line x1="178.483" y1 ="13.5897" x2="162.396" y2="4.8017" stroke = "black" stroke-width = "1" stroke-linecap="square"/>
<line x1="162.396" y1 ="4.8017" x2="165.033" y2="-0.0242004" stroke = "black" stroke-width = "1" stroke-linecap="square"/>
<line x1="330.691" y1 ="203.971" x2="347.925" y2="202.242" stroke = "black" stroke-width = "1" stroke-linecap="square"/>
<line x1="347.925" y1 ="202.242" x2="348.444" y2="207.412" stroke = "black" stroke-width = "1" stroke-linecap="square"/>
<line x1="348.444" y1 ="207.412" x2="331.21" y2="209.141" stroke = "black" stroke-width = "1" stroke-linecap="square"/>
<line x1="331.21" y1 ="209.141" x2="330.691" y2="203.971" stroke = "black" stroke-width = "1" stroke-linecap="square"/>
<line x1="217.306" y1 ="406.28" x2="231.636" y2="369.421" stroke = "black" stroke-width = "1" stroke-linecap="square"/>
<line x1="231.636" y1 ="369.421" x2="237.165" y2="371.57" stroke = "black" stroke-width = "1" stroke-linecap="square"/>
<line x1="237.165" y1 ="371.57" x2="222.835" y2="408.43" stroke = "black" stroke-width = "1" stroke-linecap="square"/>
<line x1="222.835" y1 ="408.43" x2="217.306" y2="406.28" stroke = "black" stroke-width = "1" stroke-linecap="square"/>
<line x1="360.414" y1 ="446.569" x2="381.948" y2="419.434" stroke = "black" stroke-width = "1" stroke-linecap="square"/>
<line x1="381.948" y1 ="419.434" x2="386.018" y2="422.664" stroke = "black" stroke-width = "1" stroke-linecap="square"/>
<line x1="386.018" y1 ="422.664" x2="364.485" y2="449.799" stroke = "black" stroke-width = "1" stroke-linecap="square"/>
<line x1="364.485" y1 ="449.799" x2="360.414" y2="446.569" stroke = "black" stroke-width = "1" stroke-linecap="square"/>
<circle id="start_1_1_" cx="194.927" cy ="9.15021" r="5" fill="none" stroke = "black" stroke-width = "1"/>
<circle id="start_2_1_" cx="188.218" cy ="29.0928" r="8" fill="none" stroke = "black" stroke-width = "1"/>
<circle id="goal_1_1_" cx="225.753" cy ="199.469" r="18" fill="none" stroke = "black" stroke-width = "1"/>
<circle id="goal_2_1_" cx="361.983" cy ="210.258" r="8" fill="none" stroke = "black" stroke-width = "1"/>
<circle cx="385.049" cy ="206.758" r="4" fill="none" stroke = "black" stroke-width = "1"/>
<circle cx="58.3061" cy ="287.524" r="17" fill="none" stroke = "black" stroke-width = "1"/>
<circle cx="232.891" cy ="429.198" r="17" fill="none" stroke = "black" stroke-width = "1"/>
<circle cx="300.699" cy ="433.035" r="13" fill="none" stroke = "black" stroke-width = "1"/>
<circle cx="35" cy ="15" r="14" fill="none" stroke = "orange" stroke-width = "1"/>
<circle cx="225" cy ="15" r="14" fill="none" stroke = "orange" stroke-width = "1"/>
<circle cx="345" cy ="15" r="14" fill="none" stroke = "orange" stroke-width = "1"/>
<circle cx="445" cy ="35" r="14" fill="none" stroke = "orange" stroke-width = "1"/>
<circle cx="15" cy ="235" r="14" fill="none" stroke = "orange" stroke-width = "1"/>
<circle cx="195" cy ="145" r="14" fill="none" stroke = "orange" stroke-width = "1"/>
<circle cx="335" cy ="145" r="14" fill="none" stroke = "orange" stroke-width = "1"/>
<circle cx="445" cy ="145" r="14" fill="none" stroke = "orange" stroke-width = "1"/>
<circle cx="15" cy ="295" r="14" fill="none" stroke = "orange" stroke-width = "1"/>
<circle cx="195" cy ="355" r="14" fill="none" stroke = "orange" stroke-width = "1"/>
<circle cx="345" cy ="345" r="14" fill="none" stroke = "orange" stroke-width = "1"/>
<circle cx="455" cy ="325" r="14" fill="none" stroke = "orange" stroke-width = "1"/>
<circle cx="25" cy ="445" r="14" fill="none" stroke = "orange" stroke-width = "1"/>
<circle cx="175" cy ="445" r="14" fill="none" stroke = "orange" stroke-width = "1"/>
<circle cx="435" cy ="445" r="14" fill="none" stroke = "orange" stroke-width = "1"/>
</svg>
