<?xml version="1.0" encoding="utf-8" standalone="no"?>
<!DOCTYPE svg PUBLIC "-//W3C//DTD SVG 1.1//EN" "http://www.w3.org/Graphics/SVG/1.1/DTD/svg11.dtd">
<svg viewBox = "0 0 470 470" version = "1.1" xmlns="http://www.w3.org/2000/svg" xmlns:xlink="http://www.w3.org/1999/xlink">
<line x1="0" y1 ="-3.05176e-05" x2="0" y2="470" stroke = "black" stroke-width = "1" stroke-linecap="square"/>
<line x1="0" y1 ="470" x2="470" y2="470" stroke = "black" stroke-width = "1" stroke-linecap="square"/>
<line x1="470" y1 ="470" x2="470" y2="-3.05176e-05" stroke = "black" stroke-width = "1" stroke-linecap="square"/>
<line x1="470" y1 ="-3.05176e-05" x2="0" y2="-3.05176e-05" stroke = "black" stroke-width = "1" stroke-linecap="square"/>
<line x1="30" y1 ="-3.05176e-05" x2="30" y2="40" stroke = "black" stroke-width = "1" stroke-linecap="square"/>
<line x1="30" y1 ="40" x2="80" y2="40" stroke = "black" stroke-width = "1" stroke-linecap="square"/>
<line x1="80" y1 ="40" x2="80" y2="10" stroke = "black" stroke-width = "1" stroke-linecap="square"/>
<line x1="80" y1 ="10" x2="110" y2="10" stroke = "black" stroke-width = "1" stroke-linecap="square"/>
<line x1="110" y1 ="10" x2="110" y2="-3.05176e-05" stroke = "black" stroke-width = "1" stroke-linecap="square"/>
<line x1="280" y1 ="120" x2="330" y2="120" stroke = "black" stroke-width = "1" stroke-linecap="square"/>
<line x1="330" y1 ="120" x2="330" y2="100" stroke = "black" stroke-width = "1" stroke-linecap="square"/>
<line x1="330" y1 ="100" x2="320" y2="90" stroke = "black" stroke-width = "1" stroke-linecap="square"/>
<line x1="320" y1 ="90" x2="320" y2="60" stroke = "black" stroke-width = "1" stroke-linecap="square"/>
<line x1="320" y1 ="60" x2="290" y2="60" stroke = "black" stroke-width = "1" stroke-linecap="square"/>
<line x1="290" y1 ="60" x2="290" y2="-3.05176e-05" stroke = "black" stroke-width = "1" stroke-linecap="square"/>
<line x1="290" y1 ="-3.05176e-05" x2="310" y2="-3.05176e-05" stroke = "black" stroke-width = "1" stroke-linecap="square"/>
<line x1="280" y1 ="120" x2="280" y2="150" stroke = "black" stroke-width = "1" stroke-linecap="square"/>
<line x1="280" y1 ="150" x2="380" y2="150" stroke = "black" stroke-width = "1" stroke-linecap="square"/>
<line x1="380" y1 ="150" x2="380" y2="-3.05176e-05" stroke = "black" stroke-width = "1" stroke-linecap="square"/>
<line x1="410" y1 ="-3.05176e-05" x2="410" y2="100" stroke = "black" stroke-width = "1" stroke-linecap="square"/>
<line x1="410" y1 ="100" x2="420" y2="110" stroke = "black" stroke-width = "1" stroke-linecap="square"/>
<line x1="420" y1 ="110" x2="420" y2="200" stroke = "black" stroke-width = "1" stroke-linecap="square"/>
<line x1="420" y1 ="200" x2="450" y2="200" stroke = "black" stroke-width = "1" stroke-linecap="square"/>
<line x1="450" y1 ="200" x2="450" y2="160" stroke = "black" stroke-width = "1" stroke-linecap="square"/>
<line x1="450" y1 ="160" x2="470" y2="160" stroke = "black" stroke-width = "1" stroke-linecap="square"/>
<line x1="450" y1 ="-3.05176e-05" x2="450" y2="90" stroke = "black" stroke-width = "1" stroke-linecap="square"/>
<line x1="450" y1 ="90" x2="470" y2="90" stroke = "black" stroke-width = "1" stroke-linecap="square"/>
<line x1="0" y1 ="80" x2="30" y2="80" stroke = "black" stroke-width = "1" stroke-linecap="square"/>
<line x1="30" y1 ="80" x2="40" y2="70" stroke = "black" stroke-width = "1" stroke-linecap="square"/>
<line x1="40" y1 ="70" x2="110" y2="70" stroke = "black" stroke-width = "1" stroke-linecap="square"/>
<line x1="110" y1 ="70" x2="140" y2="100" stroke = "black" stroke-width = "1" stroke-linecap="square"/>
<line x1="140" y1 ="100" x2="140" y2="130" stroke = "black" stroke-width = "1" stroke-linecap="square"/>
<line x1="140" y1 ="130" x2="0" y2="130" stroke = "black" stroke-width = "1" stroke-linecap="square"/>
<line x1="470" y1 ="110" x2="470" y2="120" stroke = "black" stroke-width = "1" stroke-linecap="square"/>
<line x1="70" y1 ="230" x2="150" y2="230" stroke = "black" stroke-width = "1" stroke-linecap="square"/>
<line x1="150" y1 ="230" x2="150" y2="400" stroke = "black" stroke-width = "1" stroke-linecap="square"/>
<line x1="150" y1 ="400" x2="130" y2="400" stroke = "black" stroke-width = "1" stroke-linecap="square"/>
<line x1="130" y1 ="400" x2="120" y2="390" stroke = "black" stroke-width = "1" stroke-linecap="square"/>
<line x1="120" y1 ="390" x2="90" y2="390" stroke = "black" stroke-width = "1" stroke-linecap="square"/>
<line x1="90" y1 ="390" x2="90" y2="290" stroke = "black" stroke-width = "1" stroke-linecap="square"/>
<line x1="90" y1 ="290" x2="70" y2="270" stroke = "black" stroke-width = "1" stroke-linecap="square"/>
<line x1="70" y1 ="270" x2="70" y2="230" stroke = "black" stroke-width = "1" stroke-linecap="square"/>
<line x1="0" y1 ="260" x2="30" y2="260" stroke = "black" stroke-width = "1" stroke-linecap="square"/>
<line x1="30" y1 ="260" x2="30" y2="270" stroke = "black" stroke-width = "1" stroke-linecap="square"/>
<line x1="30" y1 ="270" x2="20" y2="280" stroke = "black" stroke-width = "1" stroke-linecap="square"/>
<line x1="20" y1 ="280" x2="20" y2="310" stroke = "black" stroke-width = "1" stroke-linecap="square"/>
<line x1="20" y1 ="310" x2="60" y2="310" stroke = "black" stroke-width = "1" stroke-linecap="square"/>
<line x1="60" y1 ="310" x2="60" y2="350" stroke = "black" stroke-width = "1" stroke-linecap="square"/>
<line x1="60" y1 ="350" x2="40" y2="370" stroke = "black" stroke-width = "1" stroke-linecap="square"/>
<line x1="40" y1 ="370" x2="0" y2="370" stroke = "black" stroke-width = "1" stroke-linecap="square"/>
<line x1="0" y1 ="420" x2="20" y2="420" stroke = "black" stroke-width = "1" stroke-linecap="square"/>
<line x1="20" y1 ="420" x2="20" y2="450" stroke = "black" stroke-width = "1" stroke-linecap="square"/>
<line x1="20" y1 ="450" x2="50" y2="450" stroke = "black" stroke-width = "1" stroke-linecap="square"/>
<line x1="50" y1 ="450" x2="50" y2="470" stroke = "black" stroke-width = "1" stroke-linecap="square"/>
<line x1="90" y1 ="430" x2="120" y2="430" stroke = "black" stroke-width = "1" stroke-linecap="square"/>
<line x1="120" y1 ="430" x2="120" y2="450" stroke = "black" stroke-width = "1" stroke-linecap="square"/>
<line x1="120" y1 ="450" x2="130" y2="460" stroke = "black" stroke-width = "1" stroke-linecap="square"/>
<line x1="130" y1 ="460" x2="130" y2="470" stroke = "black" stroke-width = "1" stroke-linecap="square"/>
<line x1="90" y1 ="430" x2="90" y2="470" stroke = "black" stroke-width = "1" stroke-linecap="square"/>
<line x1="410" y1 ="470" x2="420" y2="460" stroke = "black" stroke-width = "1" stroke-linecap="square"/>
<line x1="420" y1 ="460" x2="420" y2="430" stroke = "black" stroke-width = "1" stroke-linecap="square"/>
<line x1="420" y1 ="430" x2="470" y2="430" stroke = "black" stroke-width = "1" stroke-linecap="square"/>
<line x1="330" y1 ="470" x2="350" y2="470" stroke = "black" stroke-width = "1" stroke-linecap="square"/>
<line x1="350" y1 ="470" x2="360" y2="460" stroke = "black" stroke-width = "1" stroke-linecap="square"/>
<line x1="360" y1 ="460" x2="370" y2="460" stroke = "black" stroke-width = "1" stroke-linecap="square"/>
<line x1="370" y1 ="460" x2="370" y2="470" stroke = "black" stroke-width = "1" stroke-linecap="square"/>
<line x1="184.757" y1 ="100.297" x2="210.308" y2="121.818" stroke = "black" stroke-width = "1" stroke-linecap="square"/>
<line x1="210.308" y1 ="121.818" x2="207.08" y2="125.65" stroke = "black" stroke-width = "1" stroke-linecap="square"/>
<line x1="207.08" y1 ="125.65" x2="181.529" y2="104.129" stroke = "black" stroke-width = "1" stroke-linecap="square"/>
<line x1="181.529" y1 ="104.129" x2="184.757" y2="100.297" stroke = "black" stroke-width = "1" stroke-linecap="square"/>
<line x1="67.8395" y1 ="169.122" x2="81.087" y2="180.28" stroke = "black" stroke-width = "1" stroke-linecap="square"/>
<line x1="81.087" y1 ="180.28" x2="77.7395" y2="184.254" stroke = "black" stroke-width = "1" stroke-linecap="square"/>
<line x1="77.7395" y1 ="184.254" x2="64.4921" y2="173.096" stroke = "black" stroke-width = "1" stroke-linecap="square"/>
<line x1="64.4921" y1 ="173.096" x2="67.8395" y2="169.122" stroke = "black" stroke-width = "1" stroke-linecap="square"/>
<line x1="0.404535" y1 ="185.561" x2="6.68075" y2="169.418" stroke = "black" stroke-width = "1" stroke-linecap="square"/>
<line x1="6.68075" y1 ="169.418" x2="11.5238" y2="171.301" stroke = "black" stroke-width = "1" stroke-linecap="square"/>
<line x1="11.5238" y1 ="171.301" x2="5.24755" y2="187.444" stroke = "black" stroke-width = "1" stroke-linecap="square"/>
<line x1="5.24755" y1 ="187.444" x2="0.404535" y2="185.561" stroke = "black" stroke-width = "1" stroke-linecap="square"/>
<line x1="79.619" y1 ="182.842" x2="88.2638" y2="169.378" stroke = "black" stroke-width = "1" stroke-linecap="square"/>
<line x1="88.2638" y1 ="169.378" x2="92.3029" y2="171.971" stroke = "black" stroke-width = "1" stroke-linecap="square"/>
<line x1="92.3029" y1 ="171.971" x2="83.6581" y2="185.435" stroke = "black" stroke-width = "1" stroke-linecap="square"/>
<line x1="83.6581" y1 ="185.435" x2="79.619" y2="182.842" stroke = "black" stroke-width = "1" stroke-linecap="square"/>
<line x1="194.337" y1 ="293.031" x2="291.387" y2="193.105" stroke = "black" stroke-width = "1" stroke-linecap="square"/>
<line x1="291.387" y1 ="193.105" x2="295.67" y2="197.264" stroke = "black" stroke-width = "1" stroke-linecap="square"/>
<line x1="295.67" y1 ="197.264" x2="198.62" y2="297.19" stroke = "black" stroke-width = "1" stroke-linecap="square"/>
<line x1="198.62" y1 ="297.19" x2="194.337" y2="293.031" stroke = "black" stroke-width = "1" stroke-linecap="square"/>
<line x1="413.081" y1 ="250.502" x2="449.283" y2="287.777" stroke = "black" stroke-width = "1" stroke-linecap="square"/>
<line x1="449.283" y1 ="287.777" x2="445.556" y2="291.397" stroke = "black" stroke-width = "1" stroke-linecap="square"/>
<line x1="445.556" y1 ="291.397" x2="409.354" y2="254.122" stroke = "black" stroke-width = "1" stroke-linecap="square"/>
<line x1="409.354" y1 ="254.122" x2="413.081" y2="250.502" stroke = "black" stroke-width = "1" stroke-linecap="square"/>
<line x1="228.313" y1 ="460.303" x2="225.737" y2="440.47" stroke = "black" stroke-width = "1" stroke-linecap="square"/>
<line x1="225.737" y1 ="440.47" x2="231.687" y2="439.697" stroke = "black" stroke-width = "1" stroke-linecap="square"/>
<line x1="231.687" y1 ="439.697" x2="234.263" y2="459.53" stroke = "black" stroke-width = "1" stroke-linecap="square"/>
<line x1="234.263" y1 ="459.53" x2="228.313" y2="460.303" stroke = "black" stroke-width = "1" stroke-linecap="square"/>
<circle id="start_1_1_" cx="218.082" cy ="16.4897" r="16" fill="none" stroke = "black" stroke-width = "1"/>
<circle id="start_2_1_" cx="401.947" cy ="375.395" r="5" fill="none" stroke = "black" stroke-width = "1"/>
<circle id="goal_1_1_" cx="210" cy ="450" r="10" fill="none" stroke = "black" stroke-width = "1"/>
<circle id="goal_2_1_" cx="190.1" cy ="449.005" r="9" fill="none" stroke = "black" stroke-width = "1"/>
<circle cx="15" cy ="15" r="14" fill="none" stroke = "orange" stroke-width = "1"/>
<circle cx="145" cy ="15" r="14" fill="none" stroke = "orange" stroke-width = "1"/>
<circle cx="395" cy ="15" r="14" fill="none" stroke = "orange" stroke-width = "1"/>
<circle cx="15" cy ="145" r="14" fill="none" stroke = "orange" stroke-width = "1"/>
<circle cx="145" cy ="145" r="14" fill="none" stroke = "orange" stroke-width = "1"/>
<circle cx="395" cy ="145" r="14" fill="none" stroke = "orange" stroke-width = "1"/>
<circle cx="445" cy ="215" r="14" fill="none" stroke = "orange" stroke-width = "1"/>
<circle cx="35" cy ="295" r="14" fill="none" stroke = "orange" stroke-width = "1"/>
<circle cx="165" cy ="295" r="14" fill="none" stroke = "orange" stroke-width = "1"/>
<circle cx="365" cy ="295" r="14" fill="none" stroke = "orange" stroke-width = "1"/>
<circle cx="445" cy ="335" r="14" fill="none" stroke = "orange" stroke-width = "1"/>
<circle cx="65" cy ="445" r="14" fill="none" stroke = "orange" stroke-width = "1"/>
<circle cx="145" cy ="445" r="14" fill="none" stroke = "orange" stroke-width = "1"/>
<circle cx="305" cy ="445" r="14" fill="none" stroke = "orange" stroke-width = "1"/>
</svg>
