<?xml version="1.0" encoding="utf-8" standalone="no"?>
<!DOCTYPE svg PUBLIC "-//W3C//DTD SVG 1.1//EN" "http://www.w3.org/Graphics/SVG/1.1/DTD/svg11.dtd">
<svg viewBox = "0 0 470 470" version = "1.1" xmlns="http://www.w3.org/2000/svg" xmlns:xlink="http://www.w3.org/1999/xlink">
<line x1="0" y1 ="-3.05176e-05" x2="0" y2="470" stroke = "black" stroke-width = "1" stroke-linecap="square"/>
<line x1="0" y1 ="470" x2="470" y2="470" stroke = "black" stroke-width = "1" stroke-linecap="square"/>
<line x1="470" y1 ="470" x2="470" y2="-3.05176e-05" stroke = "black" stroke-width = "1" stroke-linecap="square"/>
<line x1="470" y1 ="-3.05176e-05" x2="0" y2="-3.05176e-05" stroke = "black" stroke-width = "1" stroke-linecap="square"/>
<line x1="40" y1 ="40" x2="50" y2="30" stroke = "black" stroke-width = "1" stroke-linecap="square"/>
<line x1="50" y1 ="30" x2="50" y2="-3.05176e-05" stroke = "black" stroke-width = "1" stroke-linecap="square"/>
<line x1="40" y1 ="40" x2="40" y2="140" stroke = "black" stroke-width = "1" stroke-linecap="square"/>
<line x1="40" y1 ="140" x2="90" y2="140" stroke = "black" stroke-width = "1" stroke-linecap="square"/>
<line x1="90" y1 ="140" x2="100" y2="150" stroke = "black" stroke-width = "1" stroke-linecap="square"/>
<line x1="100" y1 ="150" x2="220" y2="150" stroke = "black" stroke-width = "1" stroke-linecap="square"/>
<line x1="220" y1 ="150" x2="220" y2="110" stroke = "black" stroke-width = "1" stroke-linecap="square"/>
<line x1="220" y1 ="110" x2="180" y2="110" stroke = "black" stroke-width = "1" stroke-linecap="square"/>
<line x1="180" y1 ="110" x2="160" y2="90" stroke = "black" stroke-width = "1" stroke-linecap="square"/>
<line x1="160" y1 ="90" x2="90" y2="90" stroke = "black" stroke-width = "1" stroke-linecap="square"/>
<line x1="90" y1 ="90" x2="90" y2="-3.05176e-05" stroke = "black" stroke-width = "1" stroke-linecap="square"/>
<line x1="260" y1 ="-3.05176e-05" x2="260" y2="160" stroke = "black" stroke-width = "1" stroke-linecap="square"/>
<line x1="260" y1 ="160" x2="310" y2="160" stroke = "black" stroke-width = "1" stroke-linecap="square"/>
<line x1="310" y1 ="160" x2="310" y2="80" stroke = "black" stroke-width = "1" stroke-linecap="square"/>
<line x1="310" y1 ="80" x2="300" y2="70" stroke = "black" stroke-width = "1" stroke-linecap="square"/>
<line x1="300" y1 ="70" x2="300" y2="-3.05176e-05" stroke = "black" stroke-width = "1" stroke-linecap="square"/>
<line x1="0" y1 ="60" x2="10" y2="60" stroke = "black" stroke-width = "1" stroke-linecap="square"/>
<line x1="10" y1 ="60" x2="10" y2="110" stroke = "black" stroke-width = "1" stroke-linecap="square"/>
<line x1="10" y1 ="110" x2="0" y2="110" stroke = "black" stroke-width = "1" stroke-linecap="square"/>
<line x1="430" y1 ="110" x2="440" y2="100" stroke = "black" stroke-width = "1" stroke-linecap="square"/>
<line x1="440" y1 ="100" x2="440" y2="70" stroke = "black" stroke-width = "1" stroke-linecap="square"/>
<line x1="440" y1 ="70" x2="470" y2="70" stroke = "black" stroke-width = "1" stroke-linecap="square"/>
<line x1="470" y1 ="70" x2="470" y2="180" stroke = "black" stroke-width = "1" stroke-linecap="square"/>
<line x1="470" y1 ="180" x2="430" y2="180" stroke = "black" stroke-width = "1" stroke-linecap="square"/>
<line x1="430" y1 ="180" x2="430" y2="110" stroke = "black" stroke-width = "1" stroke-linecap="square"/>
<line x1="0" y1 ="160" x2="10" y2="160" stroke = "black" stroke-width = "1" stroke-linecap="square"/>
<line x1="10" y1 ="160" x2="30" y2="180" stroke = "black" stroke-width = "1" stroke-linecap="square"/>
<line x1="30" y1 ="180" x2="30" y2="350" stroke = "black" stroke-width = "1" stroke-linecap="square"/>
<line x1="30" y1 ="350" x2="40" y2="360" stroke = "black" stroke-width = "1" stroke-linecap="square"/>
<line x1="40" y1 ="360" x2="40" y2="370" stroke = "black" stroke-width = "1" stroke-linecap="square"/>
<line x1="40" y1 ="370" x2="10" y2="400" stroke = "black" stroke-width = "1" stroke-linecap="square"/>
<line x1="10" y1 ="400" x2="0" y2="400" stroke = "black" stroke-width = "1" stroke-linecap="square"/>
<line x1="150" y1 ="180" x2="170" y2="180" stroke = "black" stroke-width = "1" stroke-linecap="square"/>
<line x1="170" y1 ="180" x2="180" y2="190" stroke = "black" stroke-width = "1" stroke-linecap="square"/>
<line x1="180" y1 ="190" x2="200" y2="190" stroke = "black" stroke-width = "1" stroke-linecap="square"/>
<line x1="200" y1 ="190" x2="200" y2="230" stroke = "black" stroke-width = "1" stroke-linecap="square"/>
<line x1="200" y1 ="230" x2="150" y2="230" stroke = "black" stroke-width = "1" stroke-linecap="square"/>
<line x1="150" y1 ="230" x2="150" y2="180" stroke = "black" stroke-width = "1" stroke-linecap="square"/>
<line x1="60" y1 ="200" x2="100" y2="200" stroke = "black" stroke-width = "1" stroke-linecap="square"/>
<line x1="100" y1 ="200" x2="100" y2="280" stroke = "black" stroke-width = "1" stroke-linecap="square"/>
<line x1="100" y1 ="280" x2="60" y2="280" stroke = "black" stroke-width = "1" stroke-linecap="square"/>
<line x1="60" y1 ="280" x2="60" y2="200" stroke = "black" stroke-width = "1" stroke-linecap="square"/>
<line x1="180" y1 ="300" x2="210" y2="300" stroke = "black" stroke-width = "1" stroke-linecap="square"/>
<line x1="210" y1 ="300" x2="210" y2="260" stroke = "black" stroke-width = "1" stroke-linecap="square"/>
<line x1="210" y1 ="260" x2="260" y2="260" stroke = "black" stroke-width = "1" stroke-linecap="square"/>
<line x1="260" y1 ="260" x2="260" y2="230" stroke = "black" stroke-width = "1" stroke-linecap="square"/>
<line x1="260" y1 ="230" x2="230" y2="230" stroke = "black" stroke-width = "1" stroke-linecap="square"/>
<line x1="230" y1 ="230" x2="230" y2="200" stroke = "black" stroke-width = "1" stroke-linecap="square"/>
<line x1="230" y1 ="200" x2="380" y2="200" stroke = "black" stroke-width = "1" stroke-linecap="square"/>
<line x1="380" y1 ="200" x2="380" y2="240" stroke = "black" stroke-width = "1" stroke-linecap="square"/>
<line x1="380" y1 ="240" x2="370" y2="250" stroke = "black" stroke-width = "1" stroke-linecap="square"/>
<line x1="370" y1 ="250" x2="370" y2="290" stroke = "black" stroke-width = "1" stroke-linecap="square"/>
<line x1="370" y1 ="290" x2="250" y2="290" stroke = "black" stroke-width = "1" stroke-linecap="square"/>
<line x1="250" y1 ="290" x2="250" y2="330" stroke = "black" stroke-width = "1" stroke-linecap="square"/>
<line x1="250" y1 ="330" x2="180" y2="330" stroke = "black" stroke-width = "1" stroke-linecap="square"/>
<line x1="180" y1 ="330" x2="180" y2="300" stroke = "black" stroke-width = "1" stroke-linecap="square"/>
<line x1="330" y1 ="410" x2="350" y2="390" stroke = "black" stroke-width = "1" stroke-linecap="square"/>
<line x1="350" y1 ="390" x2="350" y2="320" stroke = "black" stroke-width = "1" stroke-linecap="square"/>
<line x1="350" y1 ="320" x2="370" y2="320" stroke = "black" stroke-width = "1" stroke-linecap="square"/>
<line x1="370" y1 ="320" x2="380" y2="330" stroke = "black" stroke-width = "1" stroke-linecap="square"/>
<line x1="380" y1 ="330" x2="400" y2="330" stroke = "black" stroke-width = "1" stroke-linecap="square"/>
<line x1="400" y1 ="330" x2="400" y2="300" stroke = "black" stroke-width = "1" stroke-linecap="square"/>
<line x1="400" y1 ="300" x2="410" y2="290" stroke = "black" stroke-width = "1" stroke-linecap="square"/>
<line x1="410" y1 ="290" x2="410" y2="210" stroke = "black" stroke-width = "1" stroke-linecap="square"/>
<line x1="410" y1 ="210" x2="470" y2="210" stroke = "black" stroke-width = "1" stroke-linecap="square"/>
<line x1="330" y1 ="410" x2="330" y2="440" stroke = "black" stroke-width = "1" stroke-linecap="square"/>
<line x1="330" y1 ="440" x2="410" y2="440" stroke = "black" stroke-width = "1" stroke-linecap="square"/>
<line x1="410" y1 ="440" x2="410" y2="380" stroke = "black" stroke-width = "1" stroke-linecap="square"/>
<line x1="410" y1 ="380" x2="430" y2="360" stroke = "black" stroke-width = "1" stroke-linecap="square"/>
<line x1="430" y1 ="360" x2="450" y2="360" stroke = "black" stroke-width = "1" stroke-linecap="square"/>
<line x1="450" y1 ="360" x2="460" y2="370" stroke = "black" stroke-width = "1" stroke-linecap="square"/>
<line x1="460" y1 ="370" x2="470" y2="370" stroke = "black" stroke-width = "1" stroke-linecap="square"/>
<line x1="80" y1 ="410" x2="90" y2="400" stroke = "black" stroke-width = "1" stroke-linecap="square"/>
<line x1="90" y1 ="400" x2="90" y2="310" stroke = "black" stroke-width = "1" stroke-linecap="square"/>
<line x1="90" y1 ="310" x2="120" y2="310" stroke = "black" stroke-width = "1" stroke-linecap="square"/>
<line x1="120" y1 ="310" x2="130" y2="300" stroke = "black" stroke-width = "1" stroke-linecap="square"/>
<line x1="130" y1 ="300" x2="140" y2="300" stroke = "black" stroke-width = "1" stroke-linecap="square"/>
<line x1="140" y1 ="300" x2="140" y2="370" stroke = "black" stroke-width = "1" stroke-linecap="square"/>
<line x1="140" y1 ="370" x2="170" y2="400" stroke = "black" stroke-width = "1" stroke-linecap="square"/>
<line x1="170" y1 ="400" x2="170" y2="440" stroke = "black" stroke-width = "1" stroke-linecap="square"/>
<line x1="170" y1 ="440" x2="80" y2="440" stroke = "black" stroke-width = "1" stroke-linecap="square"/>
<line x1="80" y1 ="440" x2="80" y2="410" stroke = "black" stroke-width = "1" stroke-linecap="square"/>
<line x1="200" y1 ="400" x2="220" y2="380" stroke = "black" stroke-width = "1" stroke-linecap="square"/>
<line x1="220" y1 ="380" x2="220" y2="360" stroke = "black" stroke-width = "1" stroke-linecap="square"/>
<line x1="220" y1 ="360" x2="300" y2="360" stroke = "black" stroke-width = "1" stroke-linecap="square"/>
<line x1="300" y1 ="360" x2="300" y2="420" stroke = "black" stroke-width = "1" stroke-linecap="square"/>
<line x1="300" y1 ="420" x2="290" y2="430" stroke = "black" stroke-width = "1" stroke-linecap="square"/>
<line x1="290" y1 ="430" x2="290" y2="450" stroke = "black" stroke-width = "1" stroke-linecap="square"/>
<line x1="290" y1 ="450" x2="250" y2="450" stroke = "black" stroke-width = "1" stroke-linecap="square"/>
<line x1="250" y1 ="450" x2="240" y2="460" stroke = "black" stroke-width = "1" stroke-linecap="square"/>
<line x1="240" y1 ="460" x2="230" y2="460" stroke = "black" stroke-width = "1" stroke-linecap="square"/>
<line x1="230" y1 ="460" x2="200" y2="430" stroke = "black" stroke-width = "1" stroke-linecap="square"/>
<line x1="200" y1 ="430" x2="200" y2="400" stroke = "black" stroke-width = "1" stroke-linecap="square"/>
<line x1="0" y1 ="440" x2="20" y2="440" stroke = "black" stroke-width = "1" stroke-linecap="square"/>
<line x1="20" y1 ="440" x2="20" y2="470" stroke = "black" stroke-width = "1" stroke-linecap="square"/>
<line x1="50" y1 ="470" x2="150" y2="470" stroke = "black" stroke-width = "1" stroke-linecap="square"/>
<line x1="370" y1 ="470" x2="400" y2="470" stroke = "black" stroke-width = "1" stroke-linecap="square"/>
<line x1="329.803" y1 ="21.0332" x2="369.005" y2="13.0865" stroke = "black" stroke-width = "1" stroke-linecap="square"/>
<line x1="369.005" y1 ="13.0865" x2="370.197" y2="18.9668" stroke = "black" stroke-width = "1" stroke-linecap="square"/>
<line x1="370.197" y1 ="18.9668" x2="330.995" y2="26.9136" stroke = "black" stroke-width = "1" stroke-linecap="square"/>
<line x1="330.995" y1 ="26.9136" x2="329.803" y2="21.0332" stroke = "black" stroke-width = "1" stroke-linecap="square"/>
<line x1="146.215" y1 ="0.299103" x2="155.481" y2="33.6777" stroke = "black" stroke-width = "1" stroke-linecap="square"/>
<line x1="155.481" y1 ="33.6777" x2="150.474" y2="35.0677" stroke = "black" stroke-width = "1" stroke-linecap="square"/>
<line x1="150.474" y1 ="35.0677" x2="141.208" y2="1.68909" stroke = "black" stroke-width = "1" stroke-linecap="square"/>
<line x1="141.208" y1 ="1.68909" x2="146.215" y2="0.299103" stroke = "black" stroke-width = "1" stroke-linecap="square"/>
<line x1="362.467" y1 ="71.6895" x2="399.179" y2="102.612" stroke = "black" stroke-width = "1" stroke-linecap="square"/>
<line x1="399.179" y1 ="102.612" x2="396.087" y2="106.283" stroke = "black" stroke-width = "1" stroke-linecap="square"/>
<line x1="396.087" y1 ="106.283" x2="359.374" y2="75.3607" stroke = "black" stroke-width = "1" stroke-linecap="square"/>
<line x1="359.374" y1 ="75.3607" x2="362.467" y2="71.6895" stroke = "black" stroke-width = "1" stroke-linecap="square"/>
<line x1="455.355" y1 ="440.288" x2="458.299" y2="457.357" stroke = "black" stroke-width = "1" stroke-linecap="square"/>
<line x1="458.299" y1 ="457.357" x2="453.179" y2="458.24" stroke = "black" stroke-width = "1" stroke-linecap="square"/>
<line x1="453.179" y1 ="458.24" x2="450.235" y2="441.171" stroke = "black" stroke-width = "1" stroke-linecap="square"/>
<line x1="450.235" y1 ="441.171" x2="455.355" y2="440.288" stroke = "black" stroke-width = "1" stroke-linecap="square"/>
<circle cx="429.601" cy ="16.02" r="16" fill="none" stroke = "black" stroke-width = "1"/>
<circle cx="183.998" cy ="20.1168" r="16" fill="none" stroke = "black" stroke-width = "1"/>
<circle cx="15" cy ="15" r="14" fill="none" stroke = "orange" stroke-width = "1"/>
<circle cx="245" cy ="15" r="14" fill="none" stroke = "orange" stroke-width = "1"/>
<circle cx="315" cy ="15" r="14" fill="none" stroke = "orange" stroke-width = "1"/>
<circle cx="445" cy ="55" r="14" fill="none" stroke = "orange" stroke-width = "1"/>
<circle cx="15" cy ="145" r="14" fill="none" stroke = "orange" stroke-width = "1"/>
<circle cx="245" cy ="245" r="14" fill="none" stroke = "orange" stroke-width = "1"/>
<circle cx="325" cy ="145" r="14" fill="none" stroke = "orange" stroke-width = "1"/>
<circle cx="445" cy ="195" r="14" fill="none" stroke = "orange" stroke-width = "1"/>
<circle cx="15" cy ="425" r="14" fill="none" stroke = "orange" stroke-width = "1"/>
<circle cx="265" cy ="305" r="14" fill="none" stroke = "orange" stroke-width = "1"/>
<circle cx="385" cy ="315" r="14" fill="none" stroke = "orange" stroke-width = "1"/>
<circle cx="445" cy ="375" r="14" fill="none" stroke = "orange" stroke-width = "1"/>
<circle cx="185" cy ="445" r="14" fill="none" stroke = "orange" stroke-width = "1"/>
<circle cx="305" cy ="445" r="14" fill="none" stroke = "orange" stroke-width = "1"/>
</svg>
