<?xml version="1.0" encoding="utf-8" standalone="no"?>
<!DOCTYPE svg PUBLIC "-//W3C//DTD SVG 1.1//EN" "http://www.w3.org/Graphics/SVG/1.1/DTD/svg11.dtd">
<svg viewBox = "0 0 470 470" version = "1.1" xmlns="http://www.w3.org/2000/svg" xmlns:xlink="http://www.w3.org/1999/xlink">
<line x1="0" y1 ="-3.05176e-05" x2="0" y2="470" stroke = "black" stroke-width = "1" stroke-linecap="square"/>
<line x1="0" y1 ="470" x2="470" y2="470" stroke = "black" stroke-width = "1" stroke-linecap="square"/>
<line x1="470" y1 ="470" x2="470" y2="-3.05176e-05" stroke = "black" stroke-width = "1" stroke-linecap="square"/>
<line x1="470" y1 ="-3.05176e-05" x2="0" y2="-3.05176e-05" stroke = "black" stroke-width = "1" stroke-linecap="square"/>
<line x1="220" y1 ="-3.05176e-05" x2="220" y2="10" stroke = "black" stroke-width = "1" stroke-linecap="square"/>
<line x1="220" y1 ="10" x2="280" y2="10" stroke = "black" stroke-width = "1" stroke-linecap="square"/>
<line x1="280" y1 ="10" x2="280" y2="-3.05176e-05" stroke = "black" stroke-width = "1" stroke-linecap="square"/>
<line x1="310" y1 ="-3.05176e-05" x2="310" y2="20" stroke = "black" stroke-width = "1" stroke-linecap="square"/>
<line x1="310" y1 ="20" x2="340" y2="20" stroke = "black" stroke-width = "1" stroke-linecap="square"/>
<line x1="340" y1 ="20" x2="340" y2="-3.05176e-05" stroke = "black" stroke-width = "1" stroke-linecap="square"/>
<line x1="410" y1 ="-3.05176e-05" x2="410" y2="50" stroke = "black" stroke-width = "1" stroke-linecap="square"/>
<line x1="410" y1 ="50" x2="460" y2="50" stroke = "black" stroke-width = "1" stroke-linecap="square"/>
<line x1="460" y1 ="50" x2="460" y2="80" stroke = "black" stroke-width = "1" stroke-linecap="square"/>
<line x1="460" y1 ="80" x2="470" y2="90" stroke = "black" stroke-width = "1" stroke-linecap="square"/>
<line x1="470" y1 ="90" x2="470" y2="100" stroke = "black" stroke-width = "1" stroke-linecap="square"/>
<line x1="460" y1 ="-3.05176e-05" x2="460" y2="20" stroke = "black" stroke-width = "1" stroke-linecap="square"/>
<line x1="460" y1 ="20" x2="470" y2="20" stroke = "black" stroke-width = "1" stroke-linecap="square"/>
<line x1="0" y1 ="20" x2="10" y2="30" stroke = "black" stroke-width = "1" stroke-linecap="square"/>
<line x1="10" y1 ="30" x2="10" y2="40" stroke = "black" stroke-width = "1" stroke-linecap="square"/>
<line x1="10" y1 ="40" x2="0" y2="40" stroke = "black" stroke-width = "1" stroke-linecap="square"/>
<line x1="200" y1 ="80" x2="220" y2="60" stroke = "black" stroke-width = "1" stroke-linecap="square"/>
<line x1="220" y1 ="60" x2="370" y2="60" stroke = "black" stroke-width = "1" stroke-linecap="square"/>
<line x1="370" y1 ="60" x2="370" y2="110" stroke = "black" stroke-width = "1" stroke-linecap="square"/>
<line x1="370" y1 ="110" x2="440" y2="110" stroke = "black" stroke-width = "1" stroke-linecap="square"/>
<line x1="440" y1 ="110" x2="440" y2="240" stroke = "black" stroke-width = "1" stroke-linecap="square"/>
<line x1="440" y1 ="240" x2="450" y2="250" stroke = "black" stroke-width = "1" stroke-linecap="square"/>
<line x1="450" y1 ="250" x2="450" y2="280" stroke = "black" stroke-width = "1" stroke-linecap="square"/>
<line x1="450" y1 ="280" x2="360" y2="280" stroke = "black" stroke-width = "1" stroke-linecap="square"/>
<line x1="360" y1 ="280" x2="360" y2="170" stroke = "black" stroke-width = "1" stroke-linecap="square"/>
<line x1="360" y1 ="170" x2="320" y2="170" stroke = "black" stroke-width = "1" stroke-linecap="square"/>
<line x1="320" y1 ="170" x2="310" y2="160" stroke = "black" stroke-width = "1" stroke-linecap="square"/>
<line x1="310" y1 ="160" x2="250" y2="160" stroke = "black" stroke-width = "1" stroke-linecap="square"/>
<line x1="250" y1 ="160" x2="200" y2="110" stroke = "black" stroke-width = "1" stroke-linecap="square"/>
<line x1="200" y1 ="110" x2="200" y2="80" stroke = "black" stroke-width = "1" stroke-linecap="square"/>
<line x1="0" y1 ="110" x2="30" y2="110" stroke = "black" stroke-width = "1" stroke-linecap="square"/>
<line x1="30" y1 ="110" x2="40" y2="100" stroke = "black" stroke-width = "1" stroke-linecap="square"/>
<line x1="40" y1 ="100" x2="70" y2="100" stroke = "black" stroke-width = "1" stroke-linecap="square"/>
<line x1="70" y1 ="100" x2="70" y2="120" stroke = "black" stroke-width = "1" stroke-linecap="square"/>
<line x1="70" y1 ="120" x2="50" y2="140" stroke = "black" stroke-width = "1" stroke-linecap="square"/>
<line x1="50" y1 ="140" x2="30" y2="140" stroke = "black" stroke-width = "1" stroke-linecap="square"/>
<line x1="30" y1 ="140" x2="30" y2="190" stroke = "black" stroke-width = "1" stroke-linecap="square"/>
<line x1="30" y1 ="190" x2="0" y2="190" stroke = "black" stroke-width = "1" stroke-linecap="square"/>
<line x1="0" y1 ="110" x2="0" y2="160" stroke = "black" stroke-width = "1" stroke-linecap="square"/>
<line x1="120" y1 ="100" x2="150" y2="100" stroke = "black" stroke-width = "1" stroke-linecap="square"/>
<line x1="150" y1 ="100" x2="150" y2="130" stroke = "black" stroke-width = "1" stroke-linecap="square"/>
<line x1="150" y1 ="130" x2="120" y2="130" stroke = "black" stroke-width = "1" stroke-linecap="square"/>
<line x1="120" y1 ="130" x2="120" y2="100" stroke = "black" stroke-width = "1" stroke-linecap="square"/>
<line x1="150" y1 ="240" x2="160" y2="230" stroke = "black" stroke-width = "1" stroke-linecap="square"/>
<line x1="160" y1 ="230" x2="160" y2="160" stroke = "black" stroke-width = "1" stroke-linecap="square"/>
<line x1="160" y1 ="160" x2="190" y2="160" stroke = "black" stroke-width = "1" stroke-linecap="square"/>
<line x1="190" y1 ="160" x2="190" y2="230" stroke = "black" stroke-width = "1" stroke-linecap="square"/>
<line x1="190" y1 ="230" x2="220" y2="230" stroke = "black" stroke-width = "1" stroke-linecap="square"/>
<line x1="220" y1 ="230" x2="220" y2="260" stroke = "black" stroke-width = "1" stroke-linecap="square"/>
<line x1="220" y1 ="260" x2="150" y2="260" stroke = "black" stroke-width = "1" stroke-linecap="square"/>
<line x1="150" y1 ="260" x2="150" y2="240" stroke = "black" stroke-width = "1" stroke-linecap="square"/>
<line x1="50" y1 ="230" x2="60" y2="220" stroke = "black" stroke-width = "1" stroke-linecap="square"/>
<line x1="60" y1 ="220" x2="60" y2="190" stroke = "black" stroke-width = "1" stroke-linecap="square"/>
<line x1="60" y1 ="190" x2="80" y2="190" stroke = "black" stroke-width = "1" stroke-linecap="square"/>
<line x1="80" y1 ="190" x2="100" y2="210" stroke = "black" stroke-width = "1" stroke-linecap="square"/>
<line x1="100" y1 ="210" x2="100" y2="260" stroke = "black" stroke-width = "1" stroke-linecap="square"/>
<line x1="100" y1 ="260" x2="50" y2="260" stroke = "black" stroke-width = "1" stroke-linecap="square"/>
<line x1="50" y1 ="260" x2="50" y2="230" stroke = "black" stroke-width = "1" stroke-linecap="square"/>
<line x1="300" y1 ="210" x2="330" y2="210" stroke = "black" stroke-width = "1" stroke-linecap="square"/>
<line x1="330" y1 ="210" x2="330" y2="230" stroke = "black" stroke-width = "1" stroke-linecap="square"/>
<line x1="330" y1 ="230" x2="310" y2="250" stroke = "black" stroke-width = "1" stroke-linecap="square"/>
<line x1="310" y1 ="250" x2="300" y2="250" stroke = "black" stroke-width = "1" stroke-linecap="square"/>
<line x1="300" y1 ="250" x2="300" y2="210" stroke = "black" stroke-width = "1" stroke-linecap="square"/>
<line x1="150" y1 ="290" x2="200" y2="290" stroke = "black" stroke-width = "1" stroke-linecap="square"/>
<line x1="200" y1 ="290" x2="200" y2="320" stroke = "black" stroke-width = "1" stroke-linecap="square"/>
<line x1="200" y1 ="320" x2="230" y2="320" stroke = "black" stroke-width = "1" stroke-linecap="square"/>
<line x1="230" y1 ="320" x2="240" y2="310" stroke = "black" stroke-width = "1" stroke-linecap="square"/>
<line x1="240" y1 ="310" x2="260" y2="310" stroke = "black" stroke-width = "1" stroke-linecap="square"/>
<line x1="260" y1 ="310" x2="260" y2="280" stroke = "black" stroke-width = "1" stroke-linecap="square"/>
<line x1="260" y1 ="280" x2="300" y2="280" stroke = "black" stroke-width = "1" stroke-linecap="square"/>
<line x1="300" y1 ="280" x2="300" y2="370" stroke = "black" stroke-width = "1" stroke-linecap="square"/>
<line x1="300" y1 ="370" x2="180" y2="370" stroke = "black" stroke-width = "1" stroke-linecap="square"/>
<line x1="180" y1 ="370" x2="150" y2="340" stroke = "black" stroke-width = "1" stroke-linecap="square"/>
<line x1="150" y1 ="340" x2="150" y2="290" stroke = "black" stroke-width = "1" stroke-linecap="square"/>
<line x1="30" y1 ="320" x2="70" y2="320" stroke = "black" stroke-width = "1" stroke-linecap="square"/>
<line x1="70" y1 ="320" x2="70" y2="290" stroke = "black" stroke-width = "1" stroke-linecap="square"/>
<line x1="70" y1 ="290" x2="110" y2="290" stroke = "black" stroke-width = "1" stroke-linecap="square"/>
<line x1="110" y1 ="290" x2="110" y2="320" stroke = "black" stroke-width = "1" stroke-linecap="square"/>
<line x1="110" y1 ="320" x2="120" y2="330" stroke = "black" stroke-width = "1" stroke-linecap="square"/>
<line x1="120" y1 ="330" x2="120" y2="370" stroke = "black" stroke-width = "1" stroke-linecap="square"/>
<line x1="120" y1 ="370" x2="90" y2="370" stroke = "black" stroke-width = "1" stroke-linecap="square"/>
<line x1="90" y1 ="370" x2="70" y2="390" stroke = "black" stroke-width = "1" stroke-linecap="square"/>
<line x1="70" y1 ="390" x2="30" y2="390" stroke = "black" stroke-width = "1" stroke-linecap="square"/>
<line x1="30" y1 ="390" x2="30" y2="320" stroke = "black" stroke-width = "1" stroke-linecap="square"/>
<line x1="170" y1 ="410" x2="280" y2="410" stroke = "black" stroke-width = "1" stroke-linecap="square"/>
<line x1="280" y1 ="410" x2="280" y2="450" stroke = "black" stroke-width = "1" stroke-linecap="square"/>
<line x1="280" y1 ="450" x2="290" y2="460" stroke = "black" stroke-width = "1" stroke-linecap="square"/>
<line x1="290" y1 ="460" x2="290" y2="470" stroke = "black" stroke-width = "1" stroke-linecap="square"/>
<line x1="290" y1 ="470" x2="170" y2="470" stroke = "black" stroke-width = "1" stroke-linecap="square"/>
<line x1="170" y1 ="470" x2="170" y2="410" stroke = "black" stroke-width = "1" stroke-linecap="square"/>
<line x1="49.3319" y1 ="28.5747" x2="62.5373" y2="19.5404" stroke = "black" stroke-width = "1" stroke-linecap="square"/>
<line x1="62.5373" y1 ="19.5404" x2="65.2476" y2="23.502" stroke = "black" stroke-width = "1" stroke-linecap="square"/>
<line x1="65.2476" y1 ="23.502" x2="52.0422" y2="32.5363" stroke = "black" stroke-width = "1" stroke-linecap="square"/>
<line x1="52.0422" y1 ="32.5363" x2="49.3319" y2="28.5747" stroke = "black" stroke-width = "1" stroke-linecap="square"/>
<line x1="64" y1 ="438" x2="96" y2="438" stroke = "black" stroke-width = "1" stroke-linecap="square"/>
<line x1="96" y1 ="438" x2="96" y2="442.8" stroke = "black" stroke-width = "1" stroke-linecap="square"/>
<line x1="96" y1 ="442.8" x2="64" y2="442.8" stroke = "black" stroke-width = "1" stroke-linecap="square"/>
<line x1="64" y1 ="442.8" x2="64" y2="438" stroke = "black" stroke-width = "1" stroke-linecap="square"/>
<line x1="7.37288" y1 ="433.319" x2="40.8593" y2="451.612" stroke = "black" stroke-width = "1" stroke-linecap="square"/>
<line x1="40.8593" y1 ="451.612" x2="38.1152" y2="456.635" stroke = "black" stroke-width = "1" stroke-linecap="square"/>
<line x1="38.1152" y1 ="456.635" x2="4.62882" y2="438.342" stroke = "black" stroke-width = "1" stroke-linecap="square"/>
<line x1="4.62882" y1 ="438.342" x2="7.37288" y2="433.319" stroke = "black" stroke-width = "1" stroke-linecap="square"/>
<circle cx="150.199" cy ="39.02" r="19" fill="none" stroke = "black" stroke-width = "1"/>
<circle cx="365.006" cy ="360.438" r="35" fill="none" stroke = "black" stroke-width = "1"/>
<circle cx="15" cy ="15" r="14" fill="none" stroke = "orange" stroke-width = "1"/>
<circle cx="185" cy ="15" r="14" fill="none" stroke = "orange" stroke-width = "1"/>
<circle cx="295" cy ="15" r="14" fill="none" stroke = "orange" stroke-width = "1"/>
<circle cx="445" cy ="65" r="14" fill="none" stroke = "orange" stroke-width = "1"/>
<circle cx="45" cy ="155" r="14" fill="none" stroke = "orange" stroke-width = "1"/>
<circle cx="205" cy ="215" r="14" fill="none" stroke = "orange" stroke-width = "1"/>
<circle cx="345" cy ="185" r="14" fill="none" stroke = "orange" stroke-width = "1"/>
<circle cx="455" cy ="235" r="14" fill="none" stroke = "orange" stroke-width = "1"/>
<circle cx="55" cy ="305" r="14" fill="none" stroke = "orange" stroke-width = "1"/>
<circle cx="245" cy ="295" r="14" fill="none" stroke = "orange" stroke-width = "1"/>
<circle cx="315" cy ="295" r="14" fill="none" stroke = "orange" stroke-width = "1"/>
<circle cx="445" cy ="295" r="14" fill="none" stroke = "orange" stroke-width = "1"/>
<circle cx="155" cy ="445" r="14" fill="none" stroke = "orange" stroke-width = "1"/>
<circle cx="295" cy ="445" r="14" fill="none" stroke = "orange" stroke-width = "1"/>
<circle cx="445" cy ="455" r="14" fill="none" stroke = "orange" stroke-width = "1"/>
</svg>
