<?xml version="1.0" encoding="utf-8" standalone="no"?>
<!DOCTYPE svg PUBLIC "-//W3C//DTD SVG 1.1//EN" "http://www.w3.org/Graphics/SVG/1.1/DTD/svg11.dtd">
<svg viewBox = "0 0 470 470" version = "1.1" xmlns="http://www.w3.org/2000/svg" xmlns:xlink="http://www.w3.org/1999/xlink">
<line x1="0" y1 ="-3.05176e-05" x2="0" y2="470" stroke = "black" stroke-width = "1" stroke-linecap="square"/>
<line x1="0" y1 ="470" x2="470" y2="470" stroke = "black" stroke-width = "1" stroke-linecap="square"/>
<line x1="470" y1 ="470" x2="470" y2="-3.05176e-05" stroke = "black" stroke-width = "1" stroke-linecap="square"/>
<line x1="470" y1 ="-3.05176e-05" x2="0" y2="-3.05176e-05" stroke = "black" stroke-width = "1" stroke-linecap="square"/>
<line x1="0" y1 ="-3.05176e-05" x2="20" y2="-3.05176e-05" stroke = "black" stroke-width = "1" stroke-linecap="square"/>
<line x1="280" y1 ="-3.05176e-05" x2="280" y2="10" stroke = "black" stroke-width = "1" stroke-linecap="square"/>
<line x1="280" y1 ="10" x2="300" y2="30" stroke = "black" stroke-width = "1" stroke-linecap="square"/>
<line x1="300" y1 ="30" x2="300" y2="50" stroke = "black" stroke-width = "1" stroke-linecap="square"/>
<line x1="300" y1 ="50" x2="450" y2="50" stroke = "black" stroke-width = "1" stroke-linecap="square"/>
<line x1="450" y1 ="50" x2="450" y2="30" stroke = "black" stroke-width = "1" stroke-linecap="square"/>
<line x1="450" y1 ="30" x2="460" y2="20" stroke = "black" stroke-width = "1" stroke-linecap="square"/>
<line x1="460" y1 ="20" x2="460" y2="10" stroke = "black" stroke-width = "1" stroke-linecap="square"/>
<line x1="460" y1 ="10" x2="430" y2="10" stroke = "black" stroke-width = "1" stroke-linecap="square"/>
<line x1="430" y1 ="10" x2="420" y2="20" stroke = "black" stroke-width = "1" stroke-linecap="square"/>
<line x1="420" y1 ="20" x2="370" y2="20" stroke = "black" stroke-width = "1" stroke-linecap="square"/>
<line x1="370" y1 ="20" x2="350" y2="-3.05176e-05" stroke = "black" stroke-width = "1" stroke-linecap="square"/>
<line x1="90" y1 ="10" x2="250" y2="10" stroke = "black" stroke-width = "1" stroke-linecap="square"/>
<line x1="250" y1 ="10" x2="250" y2="60" stroke = "black" stroke-width = "1" stroke-linecap="square"/>
<line x1="250" y1 ="60" x2="120" y2="60" stroke = "black" stroke-width = "1" stroke-linecap="square"/>
<line x1="120" y1 ="60" x2="90" y2="30" stroke = "black" stroke-width = "1" stroke-linecap="square"/>
<line x1="90" y1 ="30" x2="90" y2="10" stroke = "black" stroke-width = "1" stroke-linecap="square"/>
<line x1="50" y1 ="70" x2="80" y2="70" stroke = "black" stroke-width = "1" stroke-linecap="square"/>
<line x1="80" y1 ="70" x2="80" y2="150" stroke = "black" stroke-width = "1" stroke-linecap="square"/>
<line x1="80" y1 ="150" x2="50" y2="150" stroke = "black" stroke-width = "1" stroke-linecap="square"/>
<line x1="50" y1 ="150" x2="50" y2="70" stroke = "black" stroke-width = "1" stroke-linecap="square"/>
<line x1="0" y1 ="90" x2="20" y2="90" stroke = "black" stroke-width = "1" stroke-linecap="square"/>
<line x1="20" y1 ="90" x2="20" y2="130" stroke = "black" stroke-width = "1" stroke-linecap="square"/>
<line x1="20" y1 ="130" x2="0" y2="130" stroke = "black" stroke-width = "1" stroke-linecap="square"/>
<line x1="370" y1 ="110" x2="470" y2="110" stroke = "black" stroke-width = "1" stroke-linecap="square"/>
<line x1="370" y1 ="110" x2="370" y2="160" stroke = "black" stroke-width = "1" stroke-linecap="square"/>
<line x1="370" y1 ="160" x2="420" y2="160" stroke = "black" stroke-width = "1" stroke-linecap="square"/>
<line x1="420" y1 ="160" x2="420" y2="250" stroke = "black" stroke-width = "1" stroke-linecap="square"/>
<line x1="420" y1 ="250" x2="460" y2="250" stroke = "black" stroke-width = "1" stroke-linecap="square"/>
<line x1="460" y1 ="250" x2="460" y2="340" stroke = "black" stroke-width = "1" stroke-linecap="square"/>
<line x1="460" y1 ="340" x2="470" y2="340" stroke = "black" stroke-width = "1" stroke-linecap="square"/>
<line x1="0" y1 ="190" x2="20" y2="190" stroke = "black" stroke-width = "1" stroke-linecap="square"/>
<line x1="20" y1 ="190" x2="30" y2="180" stroke = "black" stroke-width = "1" stroke-linecap="square"/>
<line x1="30" y1 ="180" x2="70" y2="180" stroke = "black" stroke-width = "1" stroke-linecap="square"/>
<line x1="70" y1 ="180" x2="70" y2="240" stroke = "black" stroke-width = "1" stroke-linecap="square"/>
<line x1="70" y1 ="240" x2="60" y2="240" stroke = "black" stroke-width = "1" stroke-linecap="square"/>
<line x1="60" y1 ="240" x2="50" y2="230" stroke = "black" stroke-width = "1" stroke-linecap="square"/>
<line x1="50" y1 ="230" x2="30" y2="230" stroke = "black" stroke-width = "1" stroke-linecap="square"/>
<line x1="30" y1 ="230" x2="30" y2="270" stroke = "black" stroke-width = "1" stroke-linecap="square"/>
<line x1="30" y1 ="270" x2="0" y2="270" stroke = "black" stroke-width = "1" stroke-linecap="square"/>
<line x1="0" y1 ="270" x2="0" y2="290" stroke = "black" stroke-width = "1" stroke-linecap="square"/>
<line x1="350" y1 ="210" x2="360" y2="210" stroke = "black" stroke-width = "1" stroke-linecap="square"/>
<line x1="360" y1 ="210" x2="380" y2="230" stroke = "black" stroke-width = "1" stroke-linecap="square"/>
<line x1="380" y1 ="230" x2="380" y2="290" stroke = "black" stroke-width = "1" stroke-linecap="square"/>
<line x1="380" y1 ="290" x2="430" y2="290" stroke = "black" stroke-width = "1" stroke-linecap="square"/>
<line x1="430" y1 ="290" x2="430" y2="320" stroke = "black" stroke-width = "1" stroke-linecap="square"/>
<line x1="430" y1 ="320" x2="380" y2="320" stroke = "black" stroke-width = "1" stroke-linecap="square"/>
<line x1="380" y1 ="320" x2="370" y2="330" stroke = "black" stroke-width = "1" stroke-linecap="square"/>
<line x1="370" y1 ="330" x2="350" y2="330" stroke = "black" stroke-width = "1" stroke-linecap="square"/>
<line x1="350" y1 ="330" x2="350" y2="210" stroke = "black" stroke-width = "1" stroke-linecap="square"/>
<line x1="360" y1 ="210" x2="350" y2="210" stroke = "black" stroke-width = "1" stroke-linecap="square"/>
<line x1="0" y1 ="220" x2="0" y2="240" stroke = "black" stroke-width = "1" stroke-linecap="square"/>
<line x1="120" y1 ="270" x2="250" y2="270" stroke = "black" stroke-width = "1" stroke-linecap="square"/>
<line x1="250" y1 ="270" x2="250" y2="440" stroke = "black" stroke-width = "1" stroke-linecap="square"/>
<line x1="250" y1 ="440" x2="190" y2="440" stroke = "black" stroke-width = "1" stroke-linecap="square"/>
<line x1="190" y1 ="440" x2="190" y2="350" stroke = "black" stroke-width = "1" stroke-linecap="square"/>
<line x1="190" y1 ="350" x2="160" y2="350" stroke = "black" stroke-width = "1" stroke-linecap="square"/>
<line x1="160" y1 ="350" x2="160" y2="300" stroke = "black" stroke-width = "1" stroke-linecap="square"/>
<line x1="160" y1 ="300" x2="140" y2="300" stroke = "black" stroke-width = "1" stroke-linecap="square"/>
<line x1="140" y1 ="300" x2="120" y2="280" stroke = "black" stroke-width = "1" stroke-linecap="square"/>
<line x1="120" y1 ="270" x2="120" y2="280" stroke = "black" stroke-width = "1" stroke-linecap="square"/>
<line x1="30" y1 ="320" x2="50" y2="300" stroke = "black" stroke-width = "1" stroke-linecap="square"/>
<line x1="50" y1 ="300" x2="70" y2="300" stroke = "black" stroke-width = "1" stroke-linecap="square"/>
<line x1="70" y1 ="300" x2="70" y2="380" stroke = "black" stroke-width = "1" stroke-linecap="square"/>
<line x1="70" y1 ="380" x2="30" y2="380" stroke = "black" stroke-width = "1" stroke-linecap="square"/>
<line x1="30" y1 ="380" x2="30" y2="320" stroke = "black" stroke-width = "1" stroke-linecap="square"/>
<line x1="100" y1 ="370" x2="120" y2="350" stroke = "black" stroke-width = "1" stroke-linecap="square"/>
<line x1="120" y1 ="350" x2="130" y2="350" stroke = "black" stroke-width = "1" stroke-linecap="square"/>
<line x1="130" y1 ="350" x2="130" y2="390" stroke = "black" stroke-width = "1" stroke-linecap="square"/>
<line x1="130" y1 ="390" x2="100" y2="390" stroke = "black" stroke-width = "1" stroke-linecap="square"/>
<line x1="100" y1 ="390" x2="100" y2="370" stroke = "black" stroke-width = "1" stroke-linecap="square"/>
<line x1="0" y1 ="370" x2="0" y2="380" stroke = "black" stroke-width = "1" stroke-linecap="square"/>
<line x1="180" y1 ="470" x2="310" y2="470" stroke = "black" stroke-width = "1" stroke-linecap="square"/>
<line x1="310" y1 ="470" x2="310" y2="440" stroke = "black" stroke-width = "1" stroke-linecap="square"/>
<line x1="310" y1 ="440" x2="340" y2="440" stroke = "black" stroke-width = "1" stroke-linecap="square"/>
<line x1="340" y1 ="440" x2="340" y2="470" stroke = "black" stroke-width = "1" stroke-linecap="square"/>
<line x1="390" y1 ="440" x2="470" y2="440" stroke = "black" stroke-width = "1" stroke-linecap="square"/>
<line x1="390" y1 ="440" x2="390" y2="460" stroke = "black" stroke-width = "1" stroke-linecap="square"/>
<line x1="390" y1 ="460" x2="400" y2="470" stroke = "black" stroke-width = "1" stroke-linecap="square"/>
<line x1="280.399" y1 ="95.0183" x2="320.2" y2="99.0116" stroke = "black" stroke-width = "1" stroke-linecap="square"/>
<line x1="320.2" y1 ="99.0116" x2="319.601" y2="104.982" stroke = "black" stroke-width = "1" stroke-linecap="square"/>
<line x1="319.601" y1 ="104.982" x2="279.8" y2="100.988" stroke = "black" stroke-width = "1" stroke-linecap="square"/>
<line x1="279.8" y1 ="100.988" x2="280.399" y2="95.0183" stroke = "black" stroke-width = "1" stroke-linecap="square"/>
<line x1="157.431" y1 ="93.6702" x2="208.161" y2="224.156" stroke = "black" stroke-width = "1" stroke-linecap="square"/>
<line x1="208.161" y1 ="224.156" x2="202.569" y2="226.33" stroke = "black" stroke-width = "1" stroke-linecap="square"/>
<line x1="202.569" y1 ="226.33" x2="151.839" y2="95.8443" stroke = "black" stroke-width = "1" stroke-linecap="square"/>
<line x1="151.839" y1 ="95.8443" x2="157.431" y2="93.6702" stroke = "black" stroke-width = "1" stroke-linecap="square"/>
<line x1="298.612" y1 ="320.323" x2="293.465" y2="280.706" stroke = "black" stroke-width = "1" stroke-linecap="square"/>
<line x1="293.465" y1 ="280.706" x2="299.407" y2="279.934" stroke = "black" stroke-width = "1" stroke-linecap="square"/>
<line x1="299.407" y1 ="279.934" x2="304.555" y2="319.551" stroke = "black" stroke-width = "1" stroke-linecap="square"/>
<line x1="304.555" y1 ="319.551" x2="298.612" y2="320.323" stroke = "black" stroke-width = "1" stroke-linecap="square"/>
<line x1="280.917" y1 ="332.123" x2="320.267" y2="336.072" stroke = "black" stroke-width = "1" stroke-linecap="square"/>
<line x1="320.267" y1 ="336.072" x2="319.675" y2="341.974" stroke = "black" stroke-width = "1" stroke-linecap="square"/>
<line x1="319.675" y1 ="341.974" x2="280.325" y2="338.026" stroke = "black" stroke-width = "1" stroke-linecap="square"/>
<line x1="280.325" y1 ="338.026" x2="280.917" y2="332.123" stroke = "black" stroke-width = "1" stroke-linecap="square"/>
<line x1="291.718" y1 ="361.55" x2="313.33" y2="395.208" stroke = "black" stroke-width = "1" stroke-linecap="square"/>
<line x1="313.33" y1 ="395.208" x2="308.282" y2="398.45" stroke = "black" stroke-width = "1" stroke-linecap="square"/>
<line x1="308.282" y1 ="398.45" x2="286.67" y2="364.792" stroke = "black" stroke-width = "1" stroke-linecap="square"/>
<line x1="286.67" y1 ="364.792" x2="291.718" y2="361.55" stroke = "black" stroke-width = "1" stroke-linecap="square"/>
<line x1="393.504" y1 ="398.523" x2="398.827" y2="379.348" stroke = "black" stroke-width = "1" stroke-linecap="square"/>
<line x1="398.827" y1 ="379.348" x2="404.579" y2="380.945" stroke = "black" stroke-width = "1" stroke-linecap="square"/>
<line x1="404.579" y1 ="380.945" x2="399.256" y2="400.12" stroke = "black" stroke-width = "1" stroke-linecap="square"/>
<line x1="399.256" y1 ="400.12" x2="393.504" y2="398.523" stroke = "black" stroke-width = "1" stroke-linecap="square"/>
<line x1="22.7705" y1 ="450.59" x2="53.3642" y2="424.821" stroke = "black" stroke-width = "1" stroke-linecap="square"/>
<line x1="53.3642" y1 ="424.821" x2="57.2295" y2="429.41" stroke = "black" stroke-width = "1" stroke-linecap="square"/>
<line x1="57.2295" y1 ="429.41" x2="26.6358" y2="455.179" stroke = "black" stroke-width = "1" stroke-linecap="square"/>
<line x1="26.6358" y1 ="455.179" x2="22.7705" y2="450.59" stroke = "black" stroke-width = "1" stroke-linecap="square"/>
<circle id="start_1_1_" cx="422.956" cy ="389.49" r="7" fill="none" stroke = "black" stroke-width = "1"/>
<circle id="start_2_1_" cx="381.773" cy ="384.268" r="4" fill="none" stroke = "black" stroke-width = "1"/>
<circle id="goal_1_1_" cx="114.726" cy ="430.347" r="9" fill="none" stroke = "black" stroke-width = "1"/>
<circle id="goal_2_1_" cx="15" cy ="15" r="14" fill="none" stroke = "orange" stroke-width = "1"/>
<circle cx="265" cy ="15" r="14" fill="none" stroke = "orange" stroke-width = "1"/>
<circle cx="295" cy ="65" r="14" fill="none" stroke = "orange" stroke-width = "1"/>
<circle cx="445" cy ="65" r="14" fill="none" stroke = "orange" stroke-width = "1"/>
<circle cx="15" cy ="145" r="14" fill="none" stroke = "orange" stroke-width = "1"/>
<circle cx="265" cy ="145" r="14" fill="none" stroke = "orange" stroke-width = "1"/>
<circle cx="405" cy ="175" r="14" fill="none" stroke = "orange" stroke-width = "1"/>
<circle cx="445" cy ="265" r="14" fill="none" stroke = "orange" stroke-width = "1"/>
<circle cx="15" cy ="405" r="14" fill="none" stroke = "orange" stroke-width = "1"/>
<circle cx="145" cy ="315" r="14" fill="none" stroke = "orange" stroke-width = "1"/>
<circle cx="335" cy ="295" r="14" fill="none" stroke = "orange" stroke-width = "1"/>
<circle cx="165" cy ="445" r="14" fill="none" stroke = "orange" stroke-width = "1"/>
<circle cx="295" cy ="445" r="14" fill="none" stroke = "orange" stroke-width = "1"/>
</svg>
