<?xml version="1.0" encoding="utf-8" standalone="no"?>
<!DOCTYPE svg PUBLIC "-//W3C//DTD SVG 1.1//EN" "http://www.w3.org/Graphics/SVG/1.1/DTD/svg11.dtd">
<svg viewBox = "0 0 470 470" version = "1.1" xmlns="http://www.w3.org/2000/svg" xmlns:xlink="http://www.w3.org/1999/xlink">
<line x1="0" y1 ="-3.05176e-05" x2="0" y2="470" stroke = "black" stroke-width = "1" stroke-linecap="square"/>
<line x1="0" y1 ="470" x2="470" y2="470" stroke = "black" stroke-width = "1" stroke-linecap="square"/>
<line x1="470" y1 ="470" x2="470" y2="-3.05176e-05" stroke = "black" stroke-width = "1" stroke-linecap="square"/>
<line x1="470" y1 ="-3.05176e-05" x2="0" y2="-3.05176e-05" stroke = "black" stroke-width = "1" stroke-linecap="square"/>
<line x1="250" y1 ="60" x2="270" y2="40" stroke = "black" stroke-width = "1" stroke-linecap="square"/>
<line x1="270" y1 ="40" x2="270" y2="-3.05176e-05" stroke = "black" stroke-width = "1" stroke-linecap="square"/>
<line x2="250" y2 ="60" x1="250" y1="70" stroke = "black" stroke-width = "1" stroke-linecap="square"/>
<line x2="250" y2 ="70" x1="260" y1="80" stroke = "black" stroke-width = "1" stroke-linecap="square"/>
<line x2="260" y2 ="80" x1="260" y1="110" stroke = "black" stroke-width = "1" stroke-linecap="square"/>
<line x2="260" y2 ="110" x1="270" y1="120" stroke = "black" stroke-width = "1" stroke-linecap="square"/>
<line x2="270" y2 ="120" x1="270" y1="140" stroke = "black" stroke-width = "1" stroke-linecap="square"/>
<line x2="270" y2 ="140" x1="290" y1="140" stroke = "black" stroke-width = "1" stroke-linecap="square"/>
<line x2="290" y2 ="140" x1="300" y1="150" stroke = "black" stroke-width = "1" stroke-linecap="square"/>
<line x2="300" y2 ="150" x1="320" y1="150" stroke = "black" stroke-width = "1" stroke-linecap="square"/>
<line x2="320" y2 ="150" x1="320" y1="120" stroke = "black" stroke-width = "1" stroke-linecap="square"/>
<line x2="320" y2 ="120" x1="310" y1="110" stroke = "black" stroke-width = "1" stroke-linecap="square"/>
<line x2="310" y2 ="110" x1="310" y1="10" stroke = "black" stroke-width = "1" stroke-linecap="square"/>
<line x2="310" y2 ="10" x1="300" y1="-3.05176e-05" stroke = "black" stroke-width = "1" stroke-linecap="square"/>
<line x1="450" y1 ="30" x2="470" y2="30" stroke = "black" stroke-width = "1" stroke-linecap="square"/>
<line x2="450" y2 ="30" x1="450" y1="90" stroke = "black" stroke-width = "1" stroke-linecap="square"/>
<line x2="450" y2 ="90" x1="470" y1="90" stroke = "black" stroke-width = "1" stroke-linecap="square"/>
<line x1="0" y1 ="90" x2="30" y2="60" stroke = "black" stroke-width = "1" stroke-linecap="square"/>
<line x1="30" y1 ="60" x2="100" y2="60" stroke = "black" stroke-width = "1" stroke-linecap="square"/>
<line x1="100" y1 ="60" x2="100" y2="80" stroke = "black" stroke-width = "1" stroke-linecap="square"/>
<line x1="100" y1 ="80" x2="80" y2="100" stroke = "black" stroke-width = "1" stroke-linecap="square"/>
<line x1="80" y1 ="100" x2="80" y2="140" stroke = "black" stroke-width = "1" stroke-linecap="square"/>
<line x1="80" y1 ="140" x2="110" y2="140" stroke = "black" stroke-width = "1" stroke-linecap="square"/>
<line x1="110" y1 ="140" x2="110" y2="180" stroke = "black" stroke-width = "1" stroke-linecap="square"/>
<line x1="110" y1 ="180" x2="120" y2="190" stroke = "black" stroke-width = "1" stroke-linecap="square"/>
<line x1="120" y1 ="190" x2="120" y2="200" stroke = "black" stroke-width = "1" stroke-linecap="square"/>
<line x1="120" y1 ="200" x2="100" y2="220" stroke = "black" stroke-width = "1" stroke-linecap="square"/>
<line x1="100" y1 ="220" x2="0" y2="220" stroke = "black" stroke-width = "1" stroke-linecap="square"/>
<line x1="290" y1 ="180" x2="350" y2="180" stroke = "black" stroke-width = "1" stroke-linecap="square"/>
<line x1="350" y1 ="180" x2="350" y2="150" stroke = "black" stroke-width = "1" stroke-linecap="square"/>
<line x1="350" y1 ="150" x2="360" y2="140" stroke = "black" stroke-width = "1" stroke-linecap="square"/>
<line x1="360" y1 ="140" x2="360" y2="120" stroke = "black" stroke-width = "1" stroke-linecap="square"/>
<line x1="360" y1 ="120" x2="400" y2="120" stroke = "black" stroke-width = "1" stroke-linecap="square"/>
<line x1="400" y1 ="120" x2="420" y2="140" stroke = "black" stroke-width = "1" stroke-linecap="square"/>
<line x1="420" y1 ="140" x2="420" y2="160" stroke = "black" stroke-width = "1" stroke-linecap="square"/>
<line x1="420" y1 ="160" x2="410" y2="170" stroke = "black" stroke-width = "1" stroke-linecap="square"/>
<line x1="410" y1 ="170" x2="410" y2="190" stroke = "black" stroke-width = "1" stroke-linecap="square"/>
<line x1="410" y1 ="190" x2="390" y2="210" stroke = "black" stroke-width = "1" stroke-linecap="square"/>
<line x1="390" y1 ="210" x2="310" y2="210" stroke = "black" stroke-width = "1" stroke-linecap="square"/>
<line x1="310" y1 ="210" x2="290" y2="190" stroke = "black" stroke-width = "1" stroke-linecap="square"/>
<line x2="290" y2 ="180" x1="290" y1="190" stroke = "black" stroke-width = "1" stroke-linecap="square"/>
<line x1="180" y1 ="440" x2="200" y2="420" stroke = "black" stroke-width = "1" stroke-linecap="square"/>
<line x1="200" y1 ="420" x2="220" y2="420" stroke = "black" stroke-width = "1" stroke-linecap="square"/>
<line x1="220" y1 ="420" x2="220" y2="450" stroke = "black" stroke-width = "1" stroke-linecap="square"/>
<line x1="220" y1 ="450" x2="250" y2="450" stroke = "black" stroke-width = "1" stroke-linecap="square"/>
<line x1="250" y1 ="450" x2="270" y2="430" stroke = "black" stroke-width = "1" stroke-linecap="square"/>
<line x1="270" y1 ="430" x2="280" y2="430" stroke = "black" stroke-width = "1" stroke-linecap="square"/>
<line x1="280" y1 ="430" x2="280" y2="470" stroke = "black" stroke-width = "1" stroke-linecap="square"/>
<line x1="280" y1 ="470" x2="320" y2="470" stroke = "black" stroke-width = "1" stroke-linecap="square"/>
<line x1="320" y1 ="470" x2="330" y2="460" stroke = "black" stroke-width = "1" stroke-linecap="square"/>
<line x1="330" y1 ="460" x2="410" y2="460" stroke = "black" stroke-width = "1" stroke-linecap="square"/>
<line x1="410" y1 ="460" x2="410" y2="430" stroke = "black" stroke-width = "1" stroke-linecap="square"/>
<line x1="410" y1 ="430" x2="420" y2="420" stroke = "black" stroke-width = "1" stroke-linecap="square"/>
<line x1="420" y1 ="420" x2="420" y2="400" stroke = "black" stroke-width = "1" stroke-linecap="square"/>
<line x1="420" y1 ="400" x2="360" y2="400" stroke = "black" stroke-width = "1" stroke-linecap="square"/>
<line x1="360" y1 ="400" x2="360" y2="380" stroke = "black" stroke-width = "1" stroke-linecap="square"/>
<line x1="360" y1 ="380" x2="370" y2="370" stroke = "black" stroke-width = "1" stroke-linecap="square"/>
<line x1="370" y1 ="370" x2="370" y2="340" stroke = "black" stroke-width = "1" stroke-linecap="square"/>
<line x1="370" y1 ="340" x2="400" y2="310" stroke = "black" stroke-width = "1" stroke-linecap="square"/>
<line x1="400" y1 ="310" x2="420" y2="310" stroke = "black" stroke-width = "1" stroke-linecap="square"/>
<line x1="420" y1 ="310" x2="420" y2="230" stroke = "black" stroke-width = "1" stroke-linecap="square"/>
<line x1="420" y1 ="230" x2="470" y2="230" stroke = "black" stroke-width = "1" stroke-linecap="square"/>
<line x2="180" y2 ="440" x1="180" y1="470" stroke = "black" stroke-width = "1" stroke-linecap="square"/>
<line x1="100" y1 ="270" x2="130" y2="240" stroke = "black" stroke-width = "1" stroke-linecap="square"/>
<line x1="130" y1 ="240" x2="140" y2="240" stroke = "black" stroke-width = "1" stroke-linecap="square"/>
<line x1="140" y1 ="240" x2="140" y2="280" stroke = "black" stroke-width = "1" stroke-linecap="square"/>
<line x1="140" y1 ="280" x2="270" y2="280" stroke = "black" stroke-width = "1" stroke-linecap="square"/>
<line x1="270" y1 ="280" x2="270" y2="310" stroke = "black" stroke-width = "1" stroke-linecap="square"/>
<line x1="270" y1 ="310" x2="300" y2="310" stroke = "black" stroke-width = "1" stroke-linecap="square"/>
<line x1="300" y1 ="310" x2="300" y2="380" stroke = "black" stroke-width = "1" stroke-linecap="square"/>
<line x1="300" y1 ="380" x2="280" y2="380" stroke = "black" stroke-width = "1" stroke-linecap="square"/>
<line x1="280" y1 ="380" x2="270" y2="390" stroke = "black" stroke-width = "1" stroke-linecap="square"/>
<line x1="270" y1 ="390" x2="180" y2="390" stroke = "black" stroke-width = "1" stroke-linecap="square"/>
<line x1="180" y1 ="390" x2="180" y2="350" stroke = "black" stroke-width = "1" stroke-linecap="square"/>
<line x1="180" y1 ="350" x2="220" y2="350" stroke = "black" stroke-width = "1" stroke-linecap="square"/>
<line x1="220" y1 ="350" x2="220" y2="320" stroke = "black" stroke-width = "1" stroke-linecap="square"/>
<line x1="220" y1 ="320" x2="100" y2="320" stroke = "black" stroke-width = "1" stroke-linecap="square"/>
<line x1="100" y1 ="320" x2="100" y2="270" stroke = "black" stroke-width = "1" stroke-linecap="square"/>
<line x1="310" y1 ="240" x2="380" y2="240" stroke = "black" stroke-width = "1" stroke-linecap="square"/>
<line x1="380" y1 ="240" x2="380" y2="250" stroke = "black" stroke-width = "1" stroke-linecap="square"/>
<line x1="380" y1 ="250" x2="350" y2="280" stroke = "black" stroke-width = "1" stroke-linecap="square"/>
<line x1="350" y1 ="280" x2="310" y2="280" stroke = "black" stroke-width = "1" stroke-linecap="square"/>
<line x1="310" y1 ="280" x2="310" y2="240" stroke = "black" stroke-width = "1" stroke-linecap="square"/>
<line x1="470" y1 ="260" x2="470" y2="390" stroke = "black" stroke-width = "1" stroke-linecap="square"/>
<line x1="100" y1 ="370" x2="120" y2="370" stroke = "black" stroke-width = "1" stroke-linecap="square"/>
<line x1="120" y1 ="370" x2="130" y2="360" stroke = "black" stroke-width = "1" stroke-linecap="square"/>
<line x1="130" y1 ="360" x2="150" y2="360" stroke = "black" stroke-width = "1" stroke-linecap="square"/>
<line x1="150" y1 ="360" x2="150" y2="440" stroke = "black" stroke-width = "1" stroke-linecap="square"/>
<line x1="150" y1 ="440" x2="140" y2="440" stroke = "black" stroke-width = "1" stroke-linecap="square"/>
<line x1="140" y1 ="440" x2="130" y2="430" stroke = "black" stroke-width = "1" stroke-linecap="square"/>
<line x1="130" y1 ="430" x2="100" y2="430" stroke = "black" stroke-width = "1" stroke-linecap="square"/>
<line x1="100" y1 ="430" x2="100" y2="370" stroke = "black" stroke-width = "1" stroke-linecap="square"/>
<line x1="110" y1 ="470" x2="130" y2="470" stroke = "black" stroke-width = "1" stroke-linecap="square"/>
<line x1="98.5537" y1 ="-1.03033" x2="110.413" y2="13.9146" stroke = "black" stroke-width = "1" stroke-linecap="square"/>
<line x1="110.413" y1 ="13.9146" x2="105.93" y2="17.4725" stroke = "black" stroke-width = "1" stroke-linecap="square"/>
<line x1="105.93" y1 ="17.4725" x2="94.0702" y2="2.52756" stroke = "black" stroke-width = "1" stroke-linecap="square"/>
<line x1="94.0702" y1 ="2.52756" x2="98.5537" y2="-1.03033" stroke = "black" stroke-width = "1" stroke-linecap="square"/>
<line x1="163.565" y1 ="76.8333" x2="184.905" y2="-0.0342407" stroke = "black" stroke-width = "1" stroke-linecap="square"/>
<line x1="184.905" y1 ="-0.0342407" x2="190.67" y2="1.56619" stroke = "black" stroke-width = "1" stroke-linecap="square"/>
<line x1="190.67" y1 ="1.56619" x2="169.33" y2="78.4338" stroke = "black" stroke-width = "1" stroke-linecap="square"/>
<line x1="169.33" y1 ="78.4338" x2="163.565" y2="76.8333" stroke = "black" stroke-width = "1" stroke-linecap="square"/>
<circle cx="360" cy ="20" r="20" fill="none" stroke = "black" stroke-width = "1"/>
<circle cx="209.048" cy ="186.998" r="13" fill="none" stroke = "black" stroke-width = "1"/>
<circle cx="50.6945" cy ="324.557" r="8" fill="none" stroke = "black" stroke-width = "1"/>
<circle cx="47.7085" cy ="287.86" r="12" fill="none" stroke = "black" stroke-width = "1"/>
<circle cx="35" cy ="15" r="14" fill="none" stroke = "orange" stroke-width = "1"/>
<circle cx="235" cy ="15" r="14" fill="none" stroke = "orange" stroke-width = "1"/>
<circle cx="325" cy ="15" r="14" fill="none" stroke = "orange" stroke-width = "1"/>
<circle cx="445" cy ="15" r="14" fill="none" stroke = "orange" stroke-width = "1"/>
<circle cx="15" cy ="235" r="14" fill="none" stroke = "orange" stroke-width = "1"/>
<circle cx="155" cy ="265" r="14" fill="none" stroke = "orange" stroke-width = "1"/>
<circle cx="335" cy ="165" r="14" fill="none" stroke = "orange" stroke-width = "1"/>
<circle cx="445" cy ="145" r="14" fill="none" stroke = "orange" stroke-width = "1"/>
<circle cx="15" cy ="395" r="14" fill="none" stroke = "orange" stroke-width = "1"/>
<circle cx="285" cy ="295" r="14" fill="none" stroke = "orange" stroke-width = "1"/>
<circle cx="405" cy ="295" r="14" fill="none" stroke = "orange" stroke-width = "1"/>
<circle cx="165" cy ="445" r="14" fill="none" stroke = "orange" stroke-width = "1"/>
<circle cx="395" cy ="445" r="14" fill="none" stroke = "orange" stroke-width = "1"/>
</svg>
