<?xml version="1.0" encoding="utf-8" standalone="no"?>
<!DOCTYPE svg PUBLIC "-//W3C//DTD SVG 1.1//EN" "http://www.w3.org/Graphics/SVG/1.1/DTD/svg11.dtd">
<svg viewBox = "0 0 470 470" version = "1.1" xmlns="http://www.w3.org/2000/svg" xmlns:xlink="http://www.w3.org/1999/xlink">
<line x1="0" y1 ="-3.05176e-05" x2="0" y2="470" stroke = "black" stroke-width = "1" stroke-linecap="square"/>
<line x1="0" y1 ="470" x2="470" y2="470" stroke = "black" stroke-width = "1" stroke-linecap="square"/>
<line x1="470" y1 ="470" x2="470" y2="-3.05176e-05" stroke = "black" stroke-width = "1" stroke-linecap="square"/>
<line x1="470" y1 ="-3.05176e-05" x2="0" y2="-3.05176e-05" stroke = "black" stroke-width = "1" stroke-linecap="square"/>
<line x1="80" y1 ="-3.05176e-05" x2="80" y2="20" stroke = "black" stroke-width = "1" stroke-linecap="square"/>
<line x1="80" y1 ="20" x2="100" y2="40" stroke = "black" stroke-width = "1" stroke-linecap="square"/>
<line x1="100" y1 ="40" x2="130" y2="40" stroke = "black" stroke-width = "1" stroke-linecap="square"/>
<line x1="130" y1 ="40" x2="130" y2="-3.05176e-05" stroke = "black" stroke-width = "1" stroke-linecap="square"/>
<line x1="390" y1 ="10" x2="430" y2="10" stroke = "black" stroke-width = "1" stroke-linecap="square"/>
<line x1="430" y1 ="10" x2="450" y2="30" stroke = "black" stroke-width = "1" stroke-linecap="square"/>
<line x1="450" y1 ="30" x2="470" y2="30" stroke = "black" stroke-width = "1" stroke-linecap="square"/>
<line x1="390" y1 ="10" x2="390" y2="80" stroke = "black" stroke-width = "1" stroke-linecap="square"/>
<line x1="390" y1 ="80" x2="470" y2="80" stroke = "black" stroke-width = "1" stroke-linecap="square"/>
<line x1="320" y1 ="50" x2="340" y2="30" stroke = "black" stroke-width = "1" stroke-linecap="square"/>
<line x1="340" y1 ="30" x2="360" y2="30" stroke = "black" stroke-width = "1" stroke-linecap="square"/>
<line x1="360" y1 ="30" x2="360" y2="60" stroke = "black" stroke-width = "1" stroke-linecap="square"/>
<line x1="360" y1 ="60" x2="320" y2="60" stroke = "black" stroke-width = "1" stroke-linecap="square"/>
<line x1="320" y1 ="50" x2="320" y2="60" stroke = "black" stroke-width = "1" stroke-linecap="square"/>
<line x1="0" y1 ="100" x2="70" y2="100" stroke = "black" stroke-width = "1" stroke-linecap="square"/>
<line x1="70" y1 ="100" x2="80" y2="90" stroke = "black" stroke-width = "1" stroke-linecap="square"/>
<line x1="80" y1 ="90" x2="130" y2="90" stroke = "black" stroke-width = "1" stroke-linecap="square"/>
<line x1="130" y1 ="90" x2="130" y2="110" stroke = "black" stroke-width = "1" stroke-linecap="square"/>
<line x1="130" y1 ="110" x2="140" y2="120" stroke = "black" stroke-width = "1" stroke-linecap="square"/>
<line x1="140" y1 ="120" x2="140" y2="200" stroke = "black" stroke-width = "1" stroke-linecap="square"/>
<line x1="140" y1 ="200" x2="120" y2="200" stroke = "black" stroke-width = "1" stroke-linecap="square"/>
<line x1="120" y1 ="200" x2="110" y2="210" stroke = "black" stroke-width = "1" stroke-linecap="square"/>
<line x1="110" y1 ="210" x2="70" y2="210" stroke = "black" stroke-width = "1" stroke-linecap="square"/>
<line x1="70" y1 ="210" x2="70" y2="130" stroke = "black" stroke-width = "1" stroke-linecap="square"/>
<line x1="70" y1 ="130" x2="10" y2="130" stroke = "black" stroke-width = "1" stroke-linecap="square"/>
<line x1="10" y1 ="130" x2="10" y2="150" stroke = "black" stroke-width = "1" stroke-linecap="square"/>
<line x1="10" y1 ="150" x2="0" y2="160" stroke = "black" stroke-width = "1" stroke-linecap="square"/>
<line x1="300" y1 ="110" x2="390" y2="110" stroke = "black" stroke-width = "1" stroke-linecap="square"/>
<line x1="390" y1 ="110" x2="390" y2="160" stroke = "black" stroke-width = "1" stroke-linecap="square"/>
<line x1="390" y1 ="160" x2="420" y2="160" stroke = "black" stroke-width = "1" stroke-linecap="square"/>
<line x1="420" y1 ="160" x2="430" y2="150" stroke = "black" stroke-width = "1" stroke-linecap="square"/>
<line x1="430" y1 ="150" x2="470" y2="150" stroke = "black" stroke-width = "1" stroke-linecap="square"/>
<line x1="300" y1 ="110" x2="300" y2="280" stroke = "black" stroke-width = "1" stroke-linecap="square"/>
<line x1="300" y1 ="280" x2="360" y2="280" stroke = "black" stroke-width = "1" stroke-linecap="square"/>
<line x1="360" y1 ="280" x2="360" y2="230" stroke = "black" stroke-width = "1" stroke-linecap="square"/>
<line x1="360" y1 ="230" x2="400" y2="190" stroke = "black" stroke-width = "1" stroke-linecap="square"/>
<line x1="400" y1 ="190" x2="460" y2="190" stroke = "black" stroke-width = "1" stroke-linecap="square"/>
<line x1="460" y1 ="190" x2="460" y2="220" stroke = "black" stroke-width = "1" stroke-linecap="square"/>
<line x1="460" y1 ="220" x2="470" y2="220" stroke = "black" stroke-width = "1" stroke-linecap="square"/>
<line x1="0" y1 ="200" x2="10" y2="200" stroke = "black" stroke-width = "1" stroke-linecap="square"/>
<line x1="10" y1 ="200" x2="30" y2="220" stroke = "black" stroke-width = "1" stroke-linecap="square"/>
<line x1="30" y1 ="220" x2="30" y2="240" stroke = "black" stroke-width = "1" stroke-linecap="square"/>
<line x1="30" y1 ="240" x2="160" y2="240" stroke = "black" stroke-width = "1" stroke-linecap="square"/>
<line x1="160" y1 ="240" x2="180" y2="260" stroke = "black" stroke-width = "1" stroke-linecap="square"/>
<line x1="180" y1 ="260" x2="180" y2="270" stroke = "black" stroke-width = "1" stroke-linecap="square"/>
<line x1="180" y1 ="270" x2="130" y2="270" stroke = "black" stroke-width = "1" stroke-linecap="square"/>
<line x1="130" y1 ="270" x2="130" y2="370" stroke = "black" stroke-width = "1" stroke-linecap="square"/>
<line x1="130" y1 ="370" x2="120" y2="370" stroke = "black" stroke-width = "1" stroke-linecap="square"/>
<line x1="120" y1 ="370" x2="90" y2="340" stroke = "black" stroke-width = "1" stroke-linecap="square"/>
<line x1="90" y1 ="340" x2="90" y2="300" stroke = "black" stroke-width = "1" stroke-linecap="square"/>
<line x1="90" y1 ="300" x2="60" y2="300" stroke = "black" stroke-width = "1" stroke-linecap="square"/>
<line x1="60" y1 ="300" x2="60" y2="380" stroke = "black" stroke-width = "1" stroke-linecap="square"/>
<line x1="60" y1 ="380" x2="30" y2="380" stroke = "black" stroke-width = "1" stroke-linecap="square"/>
<line x1="30" y1 ="380" x2="30" y2="310" stroke = "black" stroke-width = "1" stroke-linecap="square"/>
<line x1="30" y1 ="310" x2="0" y2="310" stroke = "black" stroke-width = "1" stroke-linecap="square"/>
<line x1="230" y1 ="230" x2="250" y2="230" stroke = "black" stroke-width = "1" stroke-linecap="square"/>
<line x1="250" y1 ="230" x2="270" y2="250" stroke = "black" stroke-width = "1" stroke-linecap="square"/>
<line x1="270" y1 ="250" x2="270" y2="270" stroke = "black" stroke-width = "1" stroke-linecap="square"/>
<line x1="270" y1 ="270" x2="230" y2="270" stroke = "black" stroke-width = "1" stroke-linecap="square"/>
<line x1="230" y1 ="270" x2="230" y2="230" stroke = "black" stroke-width = "1" stroke-linecap="square"/>
<line x1="450" y1 ="260" x2="470" y2="260" stroke = "black" stroke-width = "1" stroke-linecap="square"/>
<line x1="450" y1 ="260" x2="450" y2="290" stroke = "black" stroke-width = "1" stroke-linecap="square"/>
<line x1="450" y1 ="290" x2="470" y2="290" stroke = "black" stroke-width = "1" stroke-linecap="square"/>
<line x1="180" y1 ="300" x2="220" y2="300" stroke = "black" stroke-width = "1" stroke-linecap="square"/>
<line x1="220" y1 ="300" x2="220" y2="360" stroke = "black" stroke-width = "1" stroke-linecap="square"/>
<line x1="220" y1 ="360" x2="180" y2="360" stroke = "black" stroke-width = "1" stroke-linecap="square"/>
<line x1="180" y1 ="360" x2="180" y2="300" stroke = "black" stroke-width = "1" stroke-linecap="square"/>
<line x1="390" y1 ="300" x2="410" y2="300" stroke = "black" stroke-width = "1" stroke-linecap="square"/>
<line x1="410" y1 ="300" x2="430" y2="320" stroke = "black" stroke-width = "1" stroke-linecap="square"/>
<line x1="430" y1 ="320" x2="430" y2="330" stroke = "black" stroke-width = "1" stroke-linecap="square"/>
<line x1="430" y1 ="330" x2="390" y2="330" stroke = "black" stroke-width = "1" stroke-linecap="square"/>
<line x1="390" y1 ="330" x2="390" y2="300" stroke = "black" stroke-width = "1" stroke-linecap="square"/>
<line x1="250" y1 ="320" x2="310" y2="320" stroke = "black" stroke-width = "1" stroke-linecap="square"/>
<line x1="310" y1 ="320" x2="320" y2="330" stroke = "black" stroke-width = "1" stroke-linecap="square"/>
<line x1="320" y1 ="330" x2="340" y2="330" stroke = "black" stroke-width = "1" stroke-linecap="square"/>
<line x1="340" y1 ="330" x2="340" y2="350" stroke = "black" stroke-width = "1" stroke-linecap="square"/>
<line x1="340" y1 ="350" x2="300" y2="390" stroke = "black" stroke-width = "1" stroke-linecap="square"/>
<line x1="300" y1 ="390" x2="250" y2="390" stroke = "black" stroke-width = "1" stroke-linecap="square"/>
<line x1="250" y1 ="390" x2="250" y2="320" stroke = "black" stroke-width = "1" stroke-linecap="square"/>
<line x1="360" y1 ="380" x2="470" y2="380" stroke = "black" stroke-width = "1" stroke-linecap="square"/>
<line x1="360" y1 ="380" x2="360" y2="460" stroke = "black" stroke-width = "1" stroke-linecap="square"/>
<line x1="360" y1 ="460" x2="400" y2="460" stroke = "black" stroke-width = "1" stroke-linecap="square"/>
<line x1="400" y1 ="460" x2="410" y2="450" stroke = "black" stroke-width = "1" stroke-linecap="square"/>
<line x1="410" y1 ="450" x2="470" y2="450" stroke = "black" stroke-width = "1" stroke-linecap="square"/>
<line x1="0" y1 ="410" x2="10" y2="410" stroke = "black" stroke-width = "1" stroke-linecap="square"/>
<line x1="10" y1 ="410" x2="10" y2="420" stroke = "black" stroke-width = "1" stroke-linecap="square"/>
<line x1="10" y1 ="420" x2="0" y2="430" stroke = "black" stroke-width = "1" stroke-linecap="square"/>
<line x1="60" y1 ="450" x2="80" y2="430" stroke = "black" stroke-width = "1" stroke-linecap="square"/>
<line x1="80" y1 ="430" x2="100" y2="430" stroke = "black" stroke-width = "1" stroke-linecap="square"/>
<line x1="100" y1 ="430" x2="100" y2="470" stroke = "black" stroke-width = "1" stroke-linecap="square"/>
<line x1="60" y1 ="450" x2="60" y2="470" stroke = "black" stroke-width = "1" stroke-linecap="square"/>
<line x1="0" y1 ="460" x2="30" y2="460" stroke = "black" stroke-width = "1" stroke-linecap="square"/>
<line x1="30" y1 ="460" x2="30" y2="470" stroke = "black" stroke-width = "1" stroke-linecap="square"/>
<line x1="22.8437" y1 ="-0.189667" x2="37.9968" y2="29.5825" stroke = "black" stroke-width = "1" stroke-linecap="square"/>
<line x1="37.9968" y1 ="29.5825" x2="33.531" y2="31.8555" stroke = "black" stroke-width = "1" stroke-linecap="square"/>
<line x1="33.531" y1 ="31.8555" x2="18.3779" y2="2.08328" stroke = "black" stroke-width = "1" stroke-linecap="square"/>
<line x1="18.3779" y1 ="2.08328" x2="22.8437" y2="-0.189667" stroke = "black" stroke-width = "1" stroke-linecap="square"/>
<line x1="184.752" y1 ="28.0607" x2="250.518" y2="63.9888" stroke = "black" stroke-width = "1" stroke-linecap="square"/>
<line x1="250.518" y1 ="63.9888" x2="247.823" y2="68.9213" stroke = "black" stroke-width = "1" stroke-linecap="square"/>
<line x1="247.823" y1 ="68.9213" x2="182.057" y2="32.9931" stroke = "black" stroke-width = "1" stroke-linecap="square"/>
<line x1="182.057" y1 ="32.9931" x2="184.752" y2="28.0607" stroke = "black" stroke-width = "1" stroke-linecap="square"/>
<line x1="174.963" y1 ="160.606" x2="229.574" y2="104.377" stroke = "black" stroke-width = "1" stroke-linecap="square"/>
<line x1="229.574" y1 ="104.377" x2="233.791" y2="108.472" stroke = "black" stroke-width = "1" stroke-linecap="square"/>
<line x1="233.791" y1 ="108.472" x2="179.18" y2="164.701" stroke = "black" stroke-width = "1" stroke-linecap="square"/>
<line x1="179.18" y1 ="164.701" x2="174.963" y2="160.606" stroke = "black" stroke-width = "1" stroke-linecap="square"/>
<line x1="290.05" y1 ="446.02" x2="309.95" y2="446.02" stroke = "black" stroke-width = "1" stroke-linecap="square"/>
<line x1="309.95" y1 ="446.02" x2="309.95" y2="451.99" stroke = "black" stroke-width = "1" stroke-linecap="square"/>
<line x1="309.95" y1 ="451.99" x2="290.05" y2="451.99" stroke = "black" stroke-width = "1" stroke-linecap="square"/>
<line x1="290.05" y1 ="451.99" x2="290.05" y2="446.02" stroke = "black" stroke-width = "1" stroke-linecap="square"/>
<circle id="start_1_1_" cx="149.817" cy ="421.919" r="17" fill="none" stroke = "black" stroke-width = "1"/>
<circle id="start_2_1_" cx="65" cy ="15" r="14" fill="none" stroke = "orange" stroke-width = "1"/>
<circle id="goal_1_1_" cx="145" cy ="15" r="14" fill="none" stroke = "orange" stroke-width = "1"/>
<circle id="goal_2_1_" cx="375" cy ="15" r="14" fill="none" stroke = "orange" stroke-width = "1"/>
<circle cx="445" cy ="95" r="14" fill="none" stroke = "orange" stroke-width = "1"/>
<circle cx="55" cy ="145" r="14" fill="none" stroke = "orange" stroke-width = "1"/>
<circle cx="145" cy ="285" r="14" fill="none" stroke = "orange" stroke-width = "1"/>
<circle cx="405" cy ="145" r="14" fill="none" stroke = "orange" stroke-width = "1"/>
<circle cx="445" cy ="205" r="14" fill="none" stroke = "orange" stroke-width = "1"/>
<circle cx="75" cy ="315" r="14" fill="none" stroke = "orange" stroke-width = "1"/>
<circle cx="295" cy ="295" r="14" fill="none" stroke = "orange" stroke-width = "1"/>
<circle cx="445" cy ="305" r="14" fill="none" stroke = "orange" stroke-width = "1"/>
<circle cx="15" cy ="445" r="14" fill="none" stroke = "orange" stroke-width = "1"/>
<circle cx="235" cy ="445" r="14" fill="none" stroke = "orange" stroke-width = "1"/>
<circle cx="335" cy ="445" r="14" fill="none" stroke = "orange" stroke-width = "1"/>
</svg>
