<?xml version="1.0" encoding="utf-8" standalone="no"?>
<!DOCTYPE svg PUBLIC "-//W3C//DTD SVG 1.1//EN" "http://www.w3.org/Graphics/SVG/1.1/DTD/svg11.dtd">
<svg viewBox = "0 0 470 470" version = "1.1" xmlns="http://www.w3.org/2000/svg" xmlns:xlink="http://www.w3.org/1999/xlink">
<line x1="0" y1 ="-3.05176e-05" x2="0" y2="470" stroke = "black" stroke-width = "1" stroke-linecap="square"/>
<line x1="0" y1 ="470" x2="470" y2="470" stroke = "black" stroke-width = "1" stroke-linecap="square"/>
<line x1="470" y1 ="470" x2="470" y2="-3.05176e-05" stroke = "black" stroke-width = "1" stroke-linecap="square"/>
<line x1="470" y1 ="-3.05176e-05" x2="0" y2="-3.05176e-05" stroke = "black" stroke-width = "1" stroke-linecap="square"/>
<line x1="0" y1 ="10" x2="20" y2="10" stroke = "black" stroke-width = "1" stroke-linecap="square"/>
<line x1="20" y1 ="10" x2="20" y2="-3.05176e-05" stroke = "black" stroke-width = "1" stroke-linecap="square"/>
<line x1="80" y1 ="-3.05176e-05" x2="100" y2="20" stroke = "black" stroke-width = "1" stroke-linecap="square"/>
<line x1="100" y1 ="20" x2="120" y2="20" stroke = "black" stroke-width = "1" stroke-linecap="square"/>
<line x1="120" y1 ="20" x2="130" y2="10" stroke = "black" stroke-width = "1" stroke-linecap="square"/>
<line x1="130" y1 ="10" x2="150" y2="10" stroke = "black" stroke-width = "1" stroke-linecap="square"/>
<line x1="150" y1 ="10" x2="160" y2="-3.05176e-05" stroke = "black" stroke-width = "1" stroke-linecap="square"/>
<line x1="160" y1 ="-3.05176e-05" x2="170" y2="-3.05176e-05" stroke = "black" stroke-width = "1" stroke-linecap="square"/>
<line x1="170" y1 ="-3.05176e-05" x2="180" y2="10" stroke = "black" stroke-width = "1" stroke-linecap="square"/>
<line x1="180" y1 ="10" x2="210" y2="10" stroke = "black" stroke-width = "1" stroke-linecap="square"/>
<line x1="210" y1 ="10" x2="210" y2="-3.05176e-05" stroke = "black" stroke-width = "1" stroke-linecap="square"/>
<line x1="350" y1 ="-3.05176e-05" x2="450" y2="-3.05176e-05" stroke = "black" stroke-width = "1" stroke-linecap="square"/>
<line x1="410" y1 ="30" x2="470" y2="30" stroke = "black" stroke-width = "1" stroke-linecap="square"/>
<line x1="410" y1 ="30" x2="410" y2="60" stroke = "black" stroke-width = "1" stroke-linecap="square"/>
<line x1="410" y1 ="60" x2="430" y2="80" stroke = "black" stroke-width = "1" stroke-linecap="square"/>
<line x1="430" y1 ="80" x2="450" y2="80" stroke = "black" stroke-width = "1" stroke-linecap="square"/>
<line x1="450" y1 ="80" x2="450" y2="210" stroke = "black" stroke-width = "1" stroke-linecap="square"/>
<line x1="450" y1 ="210" x2="460" y2="220" stroke = "black" stroke-width = "1" stroke-linecap="square"/>
<line x1="460" y1 ="220" x2="460" y2="250" stroke = "black" stroke-width = "1" stroke-linecap="square"/>
<line x1="460" y1 ="250" x2="470" y2="250" stroke = "black" stroke-width = "1" stroke-linecap="square"/>
<line x1="0" y1 ="40" x2="40" y2="40" stroke = "black" stroke-width = "1" stroke-linecap="square"/>
<line x1="40" y1 ="40" x2="40" y2="100" stroke = "black" stroke-width = "1" stroke-linecap="square"/>
<line x1="40" y1 ="100" x2="20" y2="120" stroke = "black" stroke-width = "1" stroke-linecap="square"/>
<line x1="20" y1 ="120" x2="0" y2="120" stroke = "black" stroke-width = "1" stroke-linecap="square"/>
<line x1="0" y1 ="120" x2="0" y2="170" stroke = "black" stroke-width = "1" stroke-linecap="square"/>
<line x1="0" y1 ="170" x2="30" y2="170" stroke = "black" stroke-width = "1" stroke-linecap="square"/>
<line x1="30" y1 ="170" x2="30" y2="220" stroke = "black" stroke-width = "1" stroke-linecap="square"/>
<line x1="30" y1 ="220" x2="20" y2="230" stroke = "black" stroke-width = "1" stroke-linecap="square"/>
<line x1="20" y1 ="230" x2="20" y2="240" stroke = "black" stroke-width = "1" stroke-linecap="square"/>
<line x1="20" y1 ="240" x2="30" y2="250" stroke = "black" stroke-width = "1" stroke-linecap="square"/>
<line x1="30" y1 ="250" x2="30" y2="260" stroke = "black" stroke-width = "1" stroke-linecap="square"/>
<line x1="30" y1 ="260" x2="20" y2="270" stroke = "black" stroke-width = "1" stroke-linecap="square"/>
<line x1="20" y1 ="270" x2="20" y2="290" stroke = "black" stroke-width = "1" stroke-linecap="square"/>
<line x1="20" y1 ="290" x2="0" y2="290" stroke = "black" stroke-width = "1" stroke-linecap="square"/>
<line x1="60" y1 ="140" x2="190" y2="140" stroke = "black" stroke-width = "1" stroke-linecap="square"/>
<line x1="190" y1 ="140" x2="210" y2="120" stroke = "black" stroke-width = "1" stroke-linecap="square"/>
<line x1="210" y1 ="120" x2="210" y2="50" stroke = "black" stroke-width = "1" stroke-linecap="square"/>
<line x1="210" y1 ="50" x2="240" y2="50" stroke = "black" stroke-width = "1" stroke-linecap="square"/>
<line x1="240" y1 ="50" x2="240" y2="210" stroke = "black" stroke-width = "1" stroke-linecap="square"/>
<line x1="240" y1 ="210" x2="60" y2="210" stroke = "black" stroke-width = "1" stroke-linecap="square"/>
<line x1="60" y1 ="210" x2="60" y2="140" stroke = "black" stroke-width = "1" stroke-linecap="square"/>
<line x1="350" y1 ="230" x2="360" y2="220" stroke = "black" stroke-width = "1" stroke-linecap="square"/>
<line x1="360" y1 ="220" x2="360" y2="140" stroke = "black" stroke-width = "1" stroke-linecap="square"/>
<line x1="360" y1 ="140" x2="380" y2="140" stroke = "black" stroke-width = "1" stroke-linecap="square"/>
<line x1="380" y1 ="140" x2="390" y2="150" stroke = "black" stroke-width = "1" stroke-linecap="square"/>
<line x1="390" y1 ="150" x2="410" y2="150" stroke = "black" stroke-width = "1" stroke-linecap="square"/>
<line x1="410" y1 ="150" x2="410" y2="240" stroke = "black" stroke-width = "1" stroke-linecap="square"/>
<line x1="410" y1 ="240" x2="390" y2="260" stroke = "black" stroke-width = "1" stroke-linecap="square"/>
<line x1="390" y1 ="260" x2="350" y2="260" stroke = "black" stroke-width = "1" stroke-linecap="square"/>
<line x1="350" y1 ="260" x2="350" y2="230" stroke = "black" stroke-width = "1" stroke-linecap="square"/>
<line x1="90" y1 ="240" x2="110" y2="240" stroke = "black" stroke-width = "1" stroke-linecap="square"/>
<line x1="110" y1 ="240" x2="120" y2="250" stroke = "black" stroke-width = "1" stroke-linecap="square"/>
<line x1="120" y1 ="250" x2="210" y2="250" stroke = "black" stroke-width = "1" stroke-linecap="square"/>
<line x1="210" y1 ="250" x2="240" y2="280" stroke = "black" stroke-width = "1" stroke-linecap="square"/>
<line x1="240" y1 ="280" x2="240" y2="290" stroke = "black" stroke-width = "1" stroke-linecap="square"/>
<line x1="240" y1 ="290" x2="210" y2="290" stroke = "black" stroke-width = "1" stroke-linecap="square"/>
<line x1="210" y1 ="290" x2="190" y2="310" stroke = "black" stroke-width = "1" stroke-linecap="square"/>
<line x1="190" y1 ="310" x2="190" y2="320" stroke = "black" stroke-width = "1" stroke-linecap="square"/>
<line x1="190" y1 ="320" x2="170" y2="340" stroke = "black" stroke-width = "1" stroke-linecap="square"/>
<line x1="170" y1 ="340" x2="150" y2="340" stroke = "black" stroke-width = "1" stroke-linecap="square"/>
<line x1="150" y1 ="340" x2="90" y2="280" stroke = "black" stroke-width = "1" stroke-linecap="square"/>
<line x1="90" y1 ="280" x2="90" y2="240" stroke = "black" stroke-width = "1" stroke-linecap="square"/>
<line x1="430" y1 ="300" x2="450" y2="280" stroke = "black" stroke-width = "1" stroke-linecap="square"/>
<line x1="450" y1 ="280" x2="470" y2="280" stroke = "black" stroke-width = "1" stroke-linecap="square"/>
<line x1="470" y1 ="280" x2="470" y2="300" stroke = "black" stroke-width = "1" stroke-linecap="square"/>
<line x1="430" y1 ="300" x2="430" y2="340" stroke = "black" stroke-width = "1" stroke-linecap="square"/>
<line x1="430" y1 ="340" x2="470" y2="340" stroke = "black" stroke-width = "1" stroke-linecap="square"/>
<line x1="350" y1 ="290" x2="390" y2="290" stroke = "black" stroke-width = "1" stroke-linecap="square"/>
<line x1="390" y1 ="290" x2="390" y2="340" stroke = "black" stroke-width = "1" stroke-linecap="square"/>
<line x1="390" y1 ="340" x2="370" y2="340" stroke = "black" stroke-width = "1" stroke-linecap="square"/>
<line x1="370" y1 ="340" x2="350" y2="320" stroke = "black" stroke-width = "1" stroke-linecap="square"/>
<line x1="350" y1 ="320" x2="350" y2="290" stroke = "black" stroke-width = "1" stroke-linecap="square"/>
<line x1="260" y1 ="320" x2="280" y2="300" stroke = "black" stroke-width = "1" stroke-linecap="square"/>
<line x1="280" y1 ="300" x2="300" y2="300" stroke = "black" stroke-width = "1" stroke-linecap="square"/>
<line x1="300" y1 ="300" x2="320" y2="320" stroke = "black" stroke-width = "1" stroke-linecap="square"/>
<line x1="320" y1 ="320" x2="320" y2="330" stroke = "black" stroke-width = "1" stroke-linecap="square"/>
<line x1="320" y1 ="330" x2="260" y2="330" stroke = "black" stroke-width = "1" stroke-linecap="square"/>
<line x1="260" y1 ="320" x2="260" y2="330" stroke = "black" stroke-width = "1" stroke-linecap="square"/>
<line x1="0" y1 ="320" x2="10" y2="330" stroke = "black" stroke-width = "1" stroke-linecap="square"/>
<line x1="10" y1 ="330" x2="10" y2="350" stroke = "black" stroke-width = "1" stroke-linecap="square"/>
<line x1="10" y1 ="350" x2="0" y2="350" stroke = "black" stroke-width = "1" stroke-linecap="square"/>
<line x1="290" y1 ="390" x2="310" y2="370" stroke = "black" stroke-width = "1" stroke-linecap="square"/>
<line x1="310" y1 ="370" x2="370" y2="370" stroke = "black" stroke-width = "1" stroke-linecap="square"/>
<line x1="370" y1 ="370" x2="380" y2="380" stroke = "black" stroke-width = "1" stroke-linecap="square"/>
<line x1="380" y1 ="380" x2="400" y2="380" stroke = "black" stroke-width = "1" stroke-linecap="square"/>
<line x1="400" y1 ="380" x2="400" y2="470" stroke = "black" stroke-width = "1" stroke-linecap="square"/>
<line x1="290" y1 ="390" x2="290" y2="470" stroke = "black" stroke-width = "1" stroke-linecap="square"/>
<line x1="430" y1 ="370" x2="460" y2="370" stroke = "black" stroke-width = "1" stroke-linecap="square"/>
<line x1="460" y1 ="370" x2="460" y2="420" stroke = "black" stroke-width = "1" stroke-linecap="square"/>
<line x1="460" y1 ="420" x2="470" y2="430" stroke = "black" stroke-width = "1" stroke-linecap="square"/>
<line x1="470" y1 ="430" x2="470" y2="440" stroke = "black" stroke-width = "1" stroke-linecap="square"/>
<line x1="470" y1 ="440" x2="430" y2="440" stroke = "black" stroke-width = "1" stroke-linecap="square"/>
<line x1="430" y1 ="440" x2="430" y2="370" stroke = "black" stroke-width = "1" stroke-linecap="square"/>
<line x1="60" y1 ="390" x2="90" y2="390" stroke = "black" stroke-width = "1" stroke-linecap="square"/>
<line x1="90" y1 ="390" x2="110" y2="410" stroke = "black" stroke-width = "1" stroke-linecap="square"/>
<line x1="110" y1 ="410" x2="110" y2="430" stroke = "black" stroke-width = "1" stroke-linecap="square"/>
<line x1="110" y1 ="430" x2="160" y2="430" stroke = "black" stroke-width = "1" stroke-linecap="square"/>
<line x1="160" y1 ="430" x2="160" y2="470" stroke = "black" stroke-width = "1" stroke-linecap="square"/>
<line x1="60" y1 ="390" x2="60" y2="430" stroke = "black" stroke-width = "1" stroke-linecap="square"/>
<line x1="60" y1 ="430" x2="70" y2="440" stroke = "black" stroke-width = "1" stroke-linecap="square"/>
<line x1="70" y1 ="440" x2="70" y2="470" stroke = "black" stroke-width = "1" stroke-linecap="square"/>
<line x1="330" y1 ="410" x2="370" y2="410" stroke = "black" stroke-width = "1" stroke-linecap="square"/>
<line x1="370" y1 ="410" x2="370" y2="460" stroke = "black" stroke-width = "1" stroke-linecap="square"/>
<line x1="370" y1 ="460" x2="380" y2="470" stroke = "black" stroke-width = "1" stroke-linecap="square"/>
<line x1="330" y1 ="410" x2="330" y2="470" stroke = "black" stroke-width = "1" stroke-linecap="square"/>
<line x1="450" y1 ="470" x2="470" y2="470" stroke = "black" stroke-width = "1" stroke-linecap="square"/>
<line x1="309.106" y1 ="122.193" x2="314.545" y2="153.728" stroke = "black" stroke-width = "1" stroke-linecap="square"/>
<line x1="314.545" y1 ="153.728" x2="309.815" y2="154.543" stroke = "black" stroke-width = "1" stroke-linecap="square"/>
<line x1="309.815" y1 ="154.543" x2="304.376" y2="123.009" stroke = "black" stroke-width = "1" stroke-linecap="square"/>
<line x1="304.376" y1 ="123.009" x2="309.106" y2="122.193" stroke = "black" stroke-width = "1" stroke-linecap="square"/>
<line x1="282.882" y1 ="169.657" x2="314.722" y2="166.463" stroke = "black" stroke-width = "1" stroke-linecap="square"/>
<line x1="314.722" y1 ="166.463" x2="315.201" y2="171.239" stroke = "black" stroke-width = "1" stroke-linecap="square"/>
<line x1="315.201" y1 ="171.239" x2="283.361" y2="174.433" stroke = "black" stroke-width = "1" stroke-linecap="square"/>
<line x1="283.361" y1 ="174.433" x2="282.882" y2="169.657" stroke = "black" stroke-width = "1" stroke-linecap="square"/>
<line x1="39.0123" y1 ="352.105" x2="51.7831" y2="338.956" stroke = "black" stroke-width = "1" stroke-linecap="square"/>
<line x1="51.7831" y1 ="338.956" x2="55.728" y2="342.787" stroke = "black" stroke-width = "1" stroke-linecap="square"/>
<line x1="55.728" y1 ="342.787" x2="42.9571" y2="355.936" stroke = "black" stroke-width = "1" stroke-linecap="square"/>
<line x1="42.9571" y1 ="355.936" x2="39.0123" y2="352.105" stroke = "black" stroke-width = "1" stroke-linecap="square"/>
<line x1="201.054" y1 ="375.684" x2="250.698" y2="402.804" stroke = "black" stroke-width = "1" stroke-linecap="square"/>
<line x1="250.698" y1 ="402.804" x2="247.986" y2="407.768" stroke = "black" stroke-width = "1" stroke-linecap="square"/>
<line x1="247.986" y1 ="407.768" x2="198.342" y2="380.648" stroke = "black" stroke-width = "1" stroke-linecap="square"/>
<line x1="198.342" y1 ="380.648" x2="201.054" y2="375.684" stroke = "black" stroke-width = "1" stroke-linecap="square"/>
<line x1="2.25214" y1 ="437.471" x2="3.38393" y2="421.511" stroke = "black" stroke-width = "1" stroke-linecap="square"/>
<line x1="3.38393" y1 ="421.511" x2="8.17191" y2="421.85" stroke = "black" stroke-width = "1" stroke-linecap="square"/>
<line x1="8.17191" y1 ="421.85" x2="7.04011" y2="437.81" stroke = "black" stroke-width = "1" stroke-linecap="square"/>
<line x1="7.04011" y1 ="437.81" x2="2.25214" y2="437.471" stroke = "black" stroke-width = "1" stroke-linecap="square"/>
<circle id="start_1_1_" cx="301.918" cy ="216.49" r="16" fill="none" stroke = "black" stroke-width = "1"/>
<circle id="start_2_1_" cx="360.399" cy ="76.02" r="6" fill="none" stroke = "black" stroke-width = "1"/>
<circle id="goal_1_1_" cx="150.717" cy ="79.3033" r="19" fill="none" stroke = "black" stroke-width = "1"/>
<circle id="goal_2_1_" cx="15" cy ="25" r="14" fill="none" stroke = "orange" stroke-width = "1"/>
<circle cx="265" cy ="15" r="14" fill="none" stroke = "orange" stroke-width = "1"/>
<circle cx="335" cy ="15" r="14" fill="none" stroke = "orange" stroke-width = "1"/>
<circle cx="445" cy ="15" r="14" fill="none" stroke = "orange" stroke-width = "1"/>
<circle cx="15" cy ="155" r="14" fill="none" stroke = "orange" stroke-width = "1"/>
<circle cx="255" cy ="145" r="14" fill="none" stroke = "orange" stroke-width = "1"/>
<circle cx="335" cy ="145" r="14" fill="none" stroke = "orange" stroke-width = "1"/>
<circle cx="445" cy ="225" r="14" fill="none" stroke = "orange" stroke-width = "1"/>
<circle cx="15" cy ="305" r="14" fill="none" stroke = "orange" stroke-width = "1"/>
<circle cx="255" cy ="295" r="14" fill="none" stroke = "orange" stroke-width = "1"/>
<circle cx="315" cy ="295" r="14" fill="none" stroke = "orange" stroke-width = "1"/>
<circle cx="445" cy ="355" r="14" fill="none" stroke = "orange" stroke-width = "1"/>
<circle cx="15" cy ="455" r="14" fill="none" stroke = "orange" stroke-width = "1"/>
<circle cx="175" cy ="445" r="14" fill="none" stroke = "orange" stroke-width = "1"/>
<circle cx="415" cy ="445" r="14" fill="none" stroke = "orange" stroke-width = "1"/>
</svg>
