<?xml version="1.0" encoding="utf-8" standalone="no"?>
<!DOCTYPE svg PUBLIC "-//W3C//DTD SVG 1.1//EN" "http://www.w3.org/Graphics/SVG/1.1/DTD/svg11.dtd">
<svg viewBox = "0 0 470 470" version = "1.1" xmlns="http://www.w3.org/2000/svg" xmlns:xlink="http://www.w3.org/1999/xlink">
<line x1="0" y1 ="-3.05176e-05" x2="0" y2="470" stroke = "black" stroke-width = "1" stroke-linecap="square"/>
<line x1="0" y1 ="470" x2="470" y2="470" stroke = "black" stroke-width = "1" stroke-linecap="square"/>
<line x1="470" y1 ="470" x2="470" y2="-3.05176e-05" stroke = "black" stroke-width = "1" stroke-linecap="square"/>
<line x1="470" y1 ="-3.05176e-05" x2="0" y2="-3.05176e-05" stroke = "black" stroke-width = "1" stroke-linecap="square"/>
<line x1="0" y1 ="110" x2="10" y2="110" stroke = "black" stroke-width = "1" stroke-linecap="square"/>
<line x1="10" y1 ="110" x2="10" y2="130" stroke = "black" stroke-width = "1" stroke-linecap="square"/>
<line x1="10" y1 ="130" x2="30" y2="150" stroke = "black" stroke-width = "1" stroke-linecap="square"/>
<line x1="30" y1 ="150" x2="40" y2="150" stroke = "black" stroke-width = "1" stroke-linecap="square"/>
<line x1="40" y1 ="150" x2="50" y2="160" stroke = "black" stroke-width = "1" stroke-linecap="square"/>
<line x1="50" y1 ="160" x2="100" y2="160" stroke = "black" stroke-width = "1" stroke-linecap="square"/>
<line x1="100" y1 ="160" x2="100" y2="230" stroke = "black" stroke-width = "1" stroke-linecap="square"/>
<line x1="100" y1 ="230" x2="0" y2="230" stroke = "black" stroke-width = "1" stroke-linecap="square"/>
<line x1="0" y1 ="230" x2="0" y2="270" stroke = "black" stroke-width = "1" stroke-linecap="square"/>
<line x1="0" y1 ="270" x2="60" y2="270" stroke = "black" stroke-width = "1" stroke-linecap="square"/>
<line x1="60" y1 ="270" x2="60" y2="300" stroke = "black" stroke-width = "1" stroke-linecap="square"/>
<line x1="60" y1 ="300" x2="80" y2="300" stroke = "black" stroke-width = "1" stroke-linecap="square"/>
<line x1="80" y1 ="300" x2="100" y2="320" stroke = "black" stroke-width = "1" stroke-linecap="square"/>
<line x1="100" y1 ="320" x2="100" y2="340" stroke = "black" stroke-width = "1" stroke-linecap="square"/>
<line x1="100" y1 ="340" x2="0" y2="340" stroke = "black" stroke-width = "1" stroke-linecap="square"/>
<line x1="120" y1 ="120" x2="180" y2="120" stroke = "black" stroke-width = "1" stroke-linecap="square"/>
<line x1="180" y1 ="120" x2="180" y2="150" stroke = "black" stroke-width = "1" stroke-linecap="square"/>
<line x1="180" y1 ="150" x2="200" y2="150" stroke = "black" stroke-width = "1" stroke-linecap="square"/>
<line x1="200" y1 ="150" x2="210" y2="140" stroke = "black" stroke-width = "1" stroke-linecap="square"/>
<line x1="210" y1 ="140" x2="230" y2="140" stroke = "black" stroke-width = "1" stroke-linecap="square"/>
<line x1="230" y1 ="140" x2="230" y2="170" stroke = "black" stroke-width = "1" stroke-linecap="square"/>
<line x1="230" y1 ="170" x2="330" y2="170" stroke = "black" stroke-width = "1" stroke-linecap="square"/>
<line x1="330" y1 ="170" x2="340" y2="180" stroke = "black" stroke-width = "1" stroke-linecap="square"/>
<line x1="340" y1 ="180" x2="420" y2="180" stroke = "black" stroke-width = "1" stroke-linecap="square"/>
<line x1="420" y1 ="180" x2="420" y2="140" stroke = "black" stroke-width = "1" stroke-linecap="square"/>
<line x1="420" y1 ="140" x2="460" y2="140" stroke = "black" stroke-width = "1" stroke-linecap="square"/>
<line x1="460" y1 ="140" x2="460" y2="120" stroke = "black" stroke-width = "1" stroke-linecap="square"/>
<line x1="460" y1 ="120" x2="470" y2="110" stroke = "black" stroke-width = "1" stroke-linecap="square"/>
<line x1="120" y1 ="120" x2="120" y2="130" stroke = "black" stroke-width = "1" stroke-linecap="square"/>
<line x1="120" y1 ="130" x2="130" y2="140" stroke = "black" stroke-width = "1" stroke-linecap="square"/>
<line x1="130" y1 ="140" x2="130" y2="270" stroke = "black" stroke-width = "1" stroke-linecap="square"/>
<line x1="130" y1 ="270" x2="160" y2="270" stroke = "black" stroke-width = "1" stroke-linecap="square"/>
<line x1="160" y1 ="270" x2="160" y2="180" stroke = "black" stroke-width = "1" stroke-linecap="square"/>
<line x1="160" y1 ="180" x2="190" y2="180" stroke = "black" stroke-width = "1" stroke-linecap="square"/>
<line x1="190" y1 ="180" x2="190" y2="210" stroke = "black" stroke-width = "1" stroke-linecap="square"/>
<line x1="190" y1 ="210" x2="290" y2="210" stroke = "black" stroke-width = "1" stroke-linecap="square"/>
<line x1="290" y1 ="210" x2="290" y2="270" stroke = "black" stroke-width = "1" stroke-linecap="square"/>
<line x1="290" y1 ="270" x2="310" y2="290" stroke = "black" stroke-width = "1" stroke-linecap="square"/>
<line x1="310" y1 ="290" x2="350" y2="290" stroke = "black" stroke-width = "1" stroke-linecap="square"/>
<line x1="350" y1 ="290" x2="400" y2="240" stroke = "black" stroke-width = "1" stroke-linecap="square"/>
<line x1="400" y1 ="240" x2="460" y2="240" stroke = "black" stroke-width = "1" stroke-linecap="square"/>
<line x1="460" y1 ="240" x2="460" y2="200" stroke = "black" stroke-width = "1" stroke-linecap="square"/>
<line x1="460" y1 ="200" x2="470" y2="200" stroke = "black" stroke-width = "1" stroke-linecap="square"/>
<line x1="190" y1 ="300" x2="220" y2="270" stroke = "black" stroke-width = "1" stroke-linecap="square"/>
<line x1="220" y1 ="270" x2="240" y2="270" stroke = "black" stroke-width = "1" stroke-linecap="square"/>
<line x1="240" y1 ="270" x2="240" y2="310" stroke = "black" stroke-width = "1" stroke-linecap="square"/>
<line x1="240" y1 ="310" x2="270" y2="310" stroke = "black" stroke-width = "1" stroke-linecap="square"/>
<line x1="270" y1 ="310" x2="270" y2="370" stroke = "black" stroke-width = "1" stroke-linecap="square"/>
<line x1="270" y1 ="370" x2="320" y2="370" stroke = "black" stroke-width = "1" stroke-linecap="square"/>
<line x1="320" y1 ="370" x2="320" y2="420" stroke = "black" stroke-width = "1" stroke-linecap="square"/>
<line x1="320" y1 ="420" x2="350" y2="420" stroke = "black" stroke-width = "1" stroke-linecap="square"/>
<line x1="350" y1 ="420" x2="350" y2="450" stroke = "black" stroke-width = "1" stroke-linecap="square"/>
<line x1="350" y1 ="450" x2="190" y2="450" stroke = "black" stroke-width = "1" stroke-linecap="square"/>
<line x1="190" y1 ="450" x2="190" y2="300" stroke = "black" stroke-width = "1" stroke-linecap="square"/>
<line x1="410" y1 ="280" x2="470" y2="280" stroke = "black" stroke-width = "1" stroke-linecap="square"/>
<line x1="410" y1 ="280" x2="410" y2="350" stroke = "black" stroke-width = "1" stroke-linecap="square"/>
<line x1="410" y1 ="350" x2="420" y2="360" stroke = "black" stroke-width = "1" stroke-linecap="square"/>
<line x1="420" y1 ="360" x2="420" y2="370" stroke = "black" stroke-width = "1" stroke-linecap="square"/>
<line x1="420" y1 ="370" x2="450" y2="400" stroke = "black" stroke-width = "1" stroke-linecap="square"/>
<line x1="450" y1 ="400" x2="470" y2="400" stroke = "black" stroke-width = "1" stroke-linecap="square"/>
<line x1="130" y1 ="330" x2="160" y2="330" stroke = "black" stroke-width = "1" stroke-linecap="square"/>
<line x1="160" y1 ="330" x2="160" y2="350" stroke = "black" stroke-width = "1" stroke-linecap="square"/>
<line x1="160" y1 ="350" x2="140" y2="370" stroke = "black" stroke-width = "1" stroke-linecap="square"/>
<line x1="140" y1 ="370" x2="130" y2="370" stroke = "black" stroke-width = "1" stroke-linecap="square"/>
<line x1="130" y1 ="370" x2="130" y2="330" stroke = "black" stroke-width = "1" stroke-linecap="square"/>
<line x1="0" y1 ="370" x2="90" y2="370" stroke = "black" stroke-width = "1" stroke-linecap="square"/>
<line x1="90" y1 ="370" x2="90" y2="400" stroke = "black" stroke-width = "1" stroke-linecap="square"/>
<line x1="90" y1 ="400" x2="120" y2="400" stroke = "black" stroke-width = "1" stroke-linecap="square"/>
<line x1="120" y1 ="400" x2="120" y2="470" stroke = "black" stroke-width = "1" stroke-linecap="square"/>
<line x1="0" y1 ="400" x2="30" y2="400" stroke = "black" stroke-width = "1" stroke-linecap="square"/>
<line x1="30" y1 ="400" x2="30" y2="460" stroke = "black" stroke-width = "1" stroke-linecap="square"/>
<line x1="30" y1 ="460" x2="0" y2="460" stroke = "black" stroke-width = "1" stroke-linecap="square"/>
<line x1="0" y1 ="460" x2="0" y2="430" stroke = "black" stroke-width = "1" stroke-linecap="square"/>
<line x1="380" y1 ="430" x2="440" y2="430" stroke = "black" stroke-width = "1" stroke-linecap="square"/>
<line x1="440" y1 ="430" x2="470" y2="460" stroke = "black" stroke-width = "1" stroke-linecap="square"/>
<line x1="380" y1 ="430" x2="380" y2="470" stroke = "black" stroke-width = "1" stroke-linecap="square"/>
<line x1="209.992" y1 ="0.718811" x2="245.869" y2="71.2088" stroke = "black" stroke-width = "1" stroke-linecap="square"/>
<line x1="245.869" y1 ="71.2088" x2="240.582" y2="73.8996" stroke = "black" stroke-width = "1" stroke-linecap="square"/>
<line x1="240.582" y1 ="73.8996" x2="204.705" y2="3.40961" stroke = "black" stroke-width = "1" stroke-linecap="square"/>
<line x1="204.705" y1 ="3.40961" x2="209.992" y2="0.718811" stroke = "black" stroke-width = "1" stroke-linecap="square"/>
<line x1="299.168" y1 ="82.7261" x2="329.938" y2="95.7352" stroke = "black" stroke-width = "1" stroke-linecap="square"/>
<line x1="329.938" y1 ="95.7352" x2="327.987" y2="100.351" stroke = "black" stroke-width = "1" stroke-linecap="square"/>
<line x1="327.987" y1 ="100.351" x2="297.217" y2="87.3416" stroke = "black" stroke-width = "1" stroke-linecap="square"/>
<line x1="297.217" y1 ="87.3416" x2="299.168" y2="82.7261" stroke = "black" stroke-width = "1" stroke-linecap="square"/>
<line x1="395.491" y1 ="5.31406" x2="430.197" y2="24.2741" stroke = "black" stroke-width = "1" stroke-linecap="square"/>
<line x1="430.197" y1 ="24.2741" x2="427.353" y2="29.48" stroke = "black" stroke-width = "1" stroke-linecap="square"/>
<line x1="427.353" y1 ="29.48" x2="392.647" y2="10.52" stroke = "black" stroke-width = "1" stroke-linecap="square"/>
<line x1="392.647" y1 ="10.52" x2="395.491" y2="5.31406" stroke = "black" stroke-width = "1" stroke-linecap="square"/>
<line x1="429.702" y1 ="47.0332" x2="449.503" y2="45.0465" stroke = "black" stroke-width = "1" stroke-linecap="square"/>
<line x1="449.503" y1 ="45.0465" x2="450.099" y2="50.9867" stroke = "black" stroke-width = "1" stroke-linecap="square"/>
<line x1="450.099" y1 ="50.9867" x2="430.298" y2="52.9734" stroke = "black" stroke-width = "1" stroke-linecap="square"/>
<line x1="430.298" y1 ="52.9734" x2="429.702" y2="47.0332" stroke = "black" stroke-width = "1" stroke-linecap="square"/>
<line x1="463.162" y1 ="39.512" x2="466.493" y2="58.8227" stroke = "black" stroke-width = "1" stroke-linecap="square"/>
<line x1="466.493" y1 ="58.8227" x2="460.7" y2="59.8219" stroke = "black" stroke-width = "1" stroke-linecap="square"/>
<line x1="460.7" y1 ="59.8219" x2="457.369" y2="40.5111" stroke = "black" stroke-width = "1" stroke-linecap="square"/>
<line x1="457.369" y1 ="40.5111" x2="463.162" y2="39.512" stroke = "black" stroke-width = "1" stroke-linecap="square"/>
<line x1="107.585" y1 ="60.0791" x2="106.417" y2="20.0961" stroke = "black" stroke-width = "1" stroke-linecap="square"/>
<line x1="106.417" y1 ="20.0961" x2="112.415" y2="19.9209" stroke = "black" stroke-width = "1" stroke-linecap="square"/>
<line x1="112.415" y1 ="19.9209" x2="113.583" y2="59.9039" stroke = "black" stroke-width = "1" stroke-linecap="square"/>
<line x1="113.583" y1 ="59.9039" x2="107.585" y2="60.0791" stroke = "black" stroke-width = "1" stroke-linecap="square"/>
<line x1="29.1882" y1 ="39.1583" x2="60.5364" y2="22.0327" stroke = "black" stroke-width = "1" stroke-linecap="square"/>
<line x1="60.5364" y1 ="22.0327" x2="63.1053" y2="26.735" stroke = "black" stroke-width = "1" stroke-linecap="square"/>
<line x1="63.1053" y1 ="26.735" x2="31.757" y2="43.8606" stroke = "black" stroke-width = "1" stroke-linecap="square"/>
<line x1="31.757" y1 ="43.8606" x2="29.1882" y2="39.1583" stroke = "black" stroke-width = "1" stroke-linecap="square"/>
<circle cx="311.918" cy ="16.4897" r="16" fill="none" stroke = "black" stroke-width = "1"/>
<circle cx="15" cy ="15" r="14" fill="none" stroke = "orange" stroke-width = "1"/>
<circle cx="165" cy ="15" r="14" fill="none" stroke = "orange" stroke-width = "1"/>
<circle cx="355" cy ="15" r="14" fill="none" stroke = "orange" stroke-width = "1"/>
<circle cx="445" cy ="125" r="14" fill="none" stroke = "orange" stroke-width = "1"/>
<circle cx="15" cy ="245" r="14" fill="none" stroke = "orange" stroke-width = "1"/>
<circle cx="245" cy ="155" r="14" fill="none" stroke = "orange" stroke-width = "1"/>
<circle cx="405" cy ="165" r="14" fill="none" stroke = "orange" stroke-width = "1"/>
<circle cx="445" cy ="255" r="14" fill="none" stroke = "orange" stroke-width = "1"/>
<circle cx="15" cy ="355" r="14" fill="none" stroke = "orange" stroke-width = "1"/>
<circle cx="255" cy ="295" r="14" fill="none" stroke = "orange" stroke-width = "1"/>
<circle cx="335" cy ="405" r="14" fill="none" stroke = "orange" stroke-width = "1"/>
<circle cx="445" cy ="415" r="14" fill="none" stroke = "orange" stroke-width = "1"/>
<circle cx="135" cy ="445" r="14" fill="none" stroke = "orange" stroke-width = "1"/>
</svg>
